<svg width="429" height="302" viewBox="0 0 429 302" fill="none" xmlns="http://www.w3.org/2000/svg">
<g clip-path="url(#clip0)">
<path opacity="0.1" d="M429 193.965C429.01 202.126 428.147 210.265 426.425 218.246C425.847 220.918 425.176 223.538 424.411 226.105C423.464 229.304 422.381 232.406 421.162 235.411C420.543 236.941 419.888 238.444 419.199 239.921C419.222 248.247 417.72 256.508 414.766 264.303C409.539 278.015 400.022 289.201 388.111 295.736C380.69 299.838 372.334 301.994 363.835 302H81.4387C66.3449 302 52.3547 296.685 40.8851 287.628C37.5316 284.969 34.4156 282.03 31.5717 278.841C27.6155 274.394 24.1807 269.517 21.3331 264.303C14.7259 252.269 10.9197 238.103 10.9197 222.94C4.01748 209.095 0 192.496 0 174.635C0 152.122 6.39592 131.59 16.904 116.042C19.0714 112.828 21.4706 109.773 24.083 106.902C26.6066 104.123 29.3521 101.55 32.2928 99.2088C34.5985 97.3729 37.0328 95.7016 39.5775 94.2075C40.6301 93.5941 41.6864 93.0168 42.7609 92.4791C43.703 91.998 44.6573 91.5494 45.6237 91.1332C46.782 90.628 47.9548 90.1649 49.1422 89.744C50.3296 89.323 51.5012 88.9537 52.6571 88.6362C54.3653 88.1635 56.0979 87.7816 57.8474 87.4923C59.3043 87.2434 60.7612 87.0593 62.2182 86.9402C63.3764 86.8464 64.5444 86.7923 65.7221 86.7779C65.937 86.7779 66.1446 86.7779 66.3595 86.7779C67.6561 86.7779 68.9455 86.8392 70.224 86.9366C70.3587 86.6263 70.5044 86.316 70.6392 86.0057C71.1491 84.8943 71.6773 83.7901 72.209 82.7004C72.2102 82.6908 72.2102 82.6811 72.209 82.6715C72.3001 82.4839 72.3912 82.3107 72.4859 82.1122C72.9157 81.2246 73.3637 80.3441 73.8226 79.4709C74.0339 79.0668 74.2415 78.6662 74.4564 78.2657C74.5037 78.1719 74.5511 78.0817 74.6057 77.9879C74.8242 77.5729 75.0464 77.1615 75.2722 76.7502C76.3965 74.6982 77.5657 72.6775 78.7798 70.6881C78.8854 70.5185 78.9838 70.3489 79.0894 70.1829C79.2788 69.8762 79.4536 69.5695 79.6649 69.2664C80.1675 68.4581 80.6847 67.6534 81.2056 66.856C81.5698 66.2931 81.9341 65.7302 82.3274 65.1745C83.2744 63.7672 84.2457 62.378 85.2413 61.0068C86.2368 59.6356 87.2713 58.2644 88.3445 56.8932C88.4902 56.7056 88.6359 56.5324 88.7889 56.3339L90.3442 54.3962L90.5591 54.1328L91.1236 53.4509C91.9577 52.4441 92.8137 51.4482 93.6733 50.4631C98.0019 45.5205 102.663 40.8732 107.623 36.5528C107.816 36.376 108.013 36.192 108.206 36.0404C109.131 35.243 110.071 34.4563 111.011 33.6841C116.133 29.4769 121.537 25.6191 127.186 22.1373C127.572 21.8919 127.966 21.6538 128.363 21.4156C133.353 18.3949 138.521 15.6718 143.839 13.2607C146.753 11.9328 149.697 10.7035 152.672 9.57292C154.646 8.82959 156.627 8.12957 158.634 7.46562C161.737 6.45046 164.879 5.53033 168.06 4.70521C177.39 2.30438 186.935 0.815416 196.558 0.259682C199.472 0.0864796 202.418 -0.000121307 205.398 -0.000121307C219.829 -0.0132461 234.185 2.06431 248.009 6.1666C248.136 6.40502 248.326 6.60444 248.559 6.74314C248.793 6.88184 249.06 6.95451 249.332 6.95323H250.559C251.091 7.11922 251.619 7.29242 252.151 7.46562C255.12 8.44229 258.048 9.51158 260.932 10.6735L261.661 10.9694C275.437 16.5844 288.277 24.2317 299.745 33.6517C300.597 34.3469 301.437 35.0529 302.265 35.7698C303.271 35.0313 304.293 34.3252 305.332 33.6517C309.286 31.0618 313.555 28.9788 318.037 27.4525C327.215 24.3228 337.108 23.8793 346.534 26.1751C358.645 29.1159 369.608 36.4121 378.463 46.7862C382.114 51.0972 385.321 55.7583 388.038 60.7001C388.239 61.0609 388.439 61.4218 388.632 61.7826C391.024 66.2564 393.063 70.9071 394.729 75.6929C394.791 75.8661 394.853 76.0538 394.908 76.2125C396.47 80.7589 397.723 85.4036 398.66 90.1156C398.703 90.3538 398.754 90.5955 398.798 90.8373C399.681 95.4335 400.28 100.079 400.59 104.748C400.59 104.917 400.59 105.087 400.619 105.256C400.772 107.676 400.85 110.123 400.852 112.596C400.852 114.809 400.79 117 400.666 119.17C400.666 119.412 400.637 119.657 400.619 119.892C400.586 120.523 400.539 121.155 400.492 121.783C403.301 124.381 405.905 127.189 408.279 130.183C409.34 131.513 410.367 132.891 411.36 134.315C414.417 138.71 417.075 143.365 419.301 148.225C425.46 161.558 429 177.211 429 193.965Z" fill="#F12B2B"/>
<path opacity="0.1" d="M390.756 288.057C390.756 293.416 374.03 298.305 346.545 302H88.6687C61.1874 298.305 44.4618 293.416 44.4618 288.057C44.4618 283.976 54.165 280.166 70.9415 276.947L71.415 276.857C76.15 275.958 81.4423 275.107 87.2263 274.309L87.6671 274.248C92.2564 273.62 97.1383 273.027 102.313 272.469L102.801 272.418C104.797 272.202 106.834 271.993 108.913 271.791L109.714 271.715C124.848 270.271 142.051 269.102 160.707 268.319H160.728C163.341 268.211 165.982 268.11 168.65 268.016C171.618 267.908 174.621 267.812 177.662 267.728C179.982 267.659 182.331 267.601 184.688 267.547H184.742C195.374 267.298 206.359 267.168 217.592 267.168C245.369 267.168 271.623 267.959 294.886 269.362H294.952C298.528 269.579 302.04 269.806 305.463 270.051L308.377 270.264C312.241 270.553 316.004 270.858 319.668 271.181C362.768 274.98 390.756 281.125 390.756 288.057Z" fill="#F12B2B"/>
<path opacity="0.03" d="M115.429 38.0035V48.9477C115.429 49.1423 115.391 49.3351 115.316 49.515C115.241 49.6949 115.131 49.8584 114.993 49.9962C114.854 50.1339 114.689 50.2432 114.508 50.3178C114.326 50.3924 114.132 50.4307 113.935 50.4307H93.7133C98.042 45.4882 102.703 40.8408 107.663 36.5204H113.939C114.135 36.5209 114.329 36.5597 114.51 36.6344C114.691 36.7092 114.856 36.8186 114.994 36.9563C115.132 37.094 115.242 37.2574 115.317 37.4371C115.391 37.6167 115.429 37.8092 115.429 38.0035V38.0035Z" stroke="white" stroke-miterlimit="10"/>
<path d="M362.888 37.9818V202.387C362.888 203.535 362.428 204.637 361.608 205.449C360.788 206.261 359.677 206.717 358.517 206.717H62.2182C61.059 206.717 59.9472 206.261 59.1275 205.449C58.3079 204.637 57.8474 203.535 57.8474 202.387V87.4925C59.3043 87.2435 60.7612 87.0595 62.2182 86.9404C63.3764 86.8466 64.5444 86.7924 65.7221 86.778C65.937 86.778 66.1446 86.778 66.3595 86.778C67.6561 86.778 68.9455 86.8393 70.224 86.9368C70.3587 86.6265 70.5044 86.3161 70.6392 86.0058C71.1491 84.8944 71.6773 83.7903 72.209 82.7005C72.2102 82.6909 72.2102 82.6813 72.209 82.6717C72.3001 82.484 72.3912 82.3108 72.4859 82.1124C72.9157 81.2247 73.3637 80.3443 73.8226 79.471C74.0338 79.0669 74.2415 78.6664 74.4564 78.2658C74.5037 78.172 74.5511 78.0818 74.6057 77.988C74.8242 77.573 75.0464 77.1617 75.2722 76.7503C76.3965 74.6983 77.5657 72.6777 78.7798 70.6882C78.8854 70.5186 78.9838 70.349 79.0894 70.1831C79.2788 69.8763 79.4536 69.5696 79.6649 69.2665C80.1675 68.4583 80.6847 67.6536 81.2056 66.8561C81.5698 66.2932 81.934 65.7303 82.3274 65.1746C83.2744 63.7674 84.2457 62.3781 85.2413 61.0069C86.2368 59.6358 87.2713 58.2646 88.3445 56.8934C88.4902 56.7057 88.6359 56.5325 88.7889 56.3341L90.3442 54.3964L90.5591 54.133L91.1236 53.451C91.9577 52.4443 92.8137 51.4483 93.6732 50.4632C98.0019 45.5207 102.663 40.8733 107.623 36.5529C107.816 36.3761 108.013 36.1921 108.206 36.0405C109.131 35.2431 110.071 34.4565 111.011 33.6843H299.756C300.608 34.3795 301.448 35.0855 302.276 35.8024C303.282 35.0639 304.304 34.3578 305.343 33.6843H358.521C359.674 33.6852 360.78 34.1373 361.598 34.9423C362.416 35.7472 362.88 36.8397 362.888 37.9818Z" fill="white"/>
<path d="M345.416 65.153V69.2449H79.6904C80.193 68.4366 80.7102 67.6319 81.2347 66.8345C81.5989 66.2716 81.9632 65.7086 82.3529 65.153H345.416Z" fill="#3F3D56"/>
<path d="M288.421 200.991V45.1625H284.291V200.991H288.421Z" fill="#3F3D56"/>
<path d="M212.431 200.991V45.1625H208.301V200.991H212.431Z" fill="#3F3D56"/>
<path d="M136.441 200.991V45.1625H132.311V200.991H136.441Z" fill="#3F3D56"/>
<path d="M89.0184 77.9663V94.0814H72.22V82.6789C72.22 82.6789 72.22 82.6608 72.22 82.65C72.311 82.4623 72.4021 82.2892 72.4968 82.0907C72.9302 81.203 73.3746 80.3226 73.8372 79.4494C74.0448 79.0452 74.2524 78.6447 74.4673 78.2442C74.5146 78.1503 74.5656 78.0601 74.6166 77.9663H89.0184Z" fill="url(#paint0_linear)"/>
<path d="M88.7306 78.2442V93.8035H72.5113V82.0799C72.9448 81.1922 73.3891 80.3118 73.8517 79.4385C74.0593 79.0344 74.2669 78.6339 74.4818 78.2333L88.7306 78.2442Z" fill="#7CFCFF"/>
<path d="M157.061 73.0553H140.259V89.1703H157.061V73.0553Z" fill="url(#paint1_linear)"/>
<path d="M156.773 73.3332H140.55V88.8925H156.773V73.3332Z" fill="#7CFCFF"/>
<path d="M232.948 104.344H216.146V120.459H232.948V104.344Z" fill="url(#paint2_linear)"/>
<path d="M232.661 104.621H216.438V120.181H232.661V104.621Z" fill="#7CFCFF"/>
<path d="M310.384 115.017H293.582V131.132H310.384V115.017Z" fill="url(#paint3_linear)"/>
<path d="M310.093 115.295H293.87V130.854H310.093V115.295Z" fill="#7CFCFF"/>
<path d="M331.131 125.449H314.329V141.564H331.131V125.449Z" fill="url(#paint4_linear)"/>
<path d="M330.843 125.727H314.62V141.286H330.843V125.727Z" fill="#7CFCFF"/>
<path d="M357.152 97.5743H340.35V113.689H357.152V97.5743Z" fill="url(#paint5_linear)"/>
<path d="M356.86 97.8521H340.637V113.412H356.86V97.8521Z" fill="#7CFCFF"/>
<path d="M351.885 120.184H335.083V136.299H351.885V120.184Z" fill="url(#paint6_linear)"/>
<path d="M351.593 120.462H335.37V136.022H351.593V120.462Z" fill="#7CFCFF"/>
<path d="M179.982 73.0553H163.18V89.1703H179.982V73.0553Z" fill="url(#paint7_linear)"/>
<path d="M179.694 73.3332H163.471V88.8925H179.694V73.3332Z" fill="#7CFCFF"/>
<path d="M101.475 112.123H84.6731V128.238H101.475V112.123Z" fill="url(#paint8_linear)"/>
<path d="M101.184 112.401H84.9608V127.96H101.184V112.401Z" fill="#FFFFA5"/>
<path d="M169.186 96.2861H152.384V112.401H169.186V96.2861Z" fill="url(#paint9_linear)"/>
<path d="M168.898 96.5639H152.675V112.123H168.898V96.5639Z" fill="#FFFFA5"/>
<path d="M256.762 86.6553H239.96V102.77H256.762V86.6553Z" fill="url(#paint10_linear)"/>
<path d="M256.47 86.9331H240.248V102.492H256.47V86.9331Z" fill="#FFFFA5"/>
<path d="M345.412 75.3539H328.61V91.4689H345.412V75.3539Z" fill="url(#paint11_linear)"/>
<path d="M345.125 75.6317H328.902V91.1911H345.125V75.6317Z" fill="#FFFFA5"/>
<path d="M278.929 73.0553H262.127V89.1703H278.929V73.0553Z" fill="url(#paint12_linear)"/>
<path d="M278.638 73.3332H262.415V88.8925H278.638V73.3332Z" fill="#FFFFA5"/>
<path d="M277.975 104.344H261.173V120.459H277.975V104.344Z" fill="url(#paint13_linear)"/>
<path d="M277.687 104.621H261.464V120.181H277.687V104.621Z" fill="#FFFFA5"/>
<path d="M202.542 80.8386H185.74V96.9537H202.542V80.8386Z" fill="url(#paint14_linear)"/>
<path d="M202.254 81.1129H186.032V96.6722H202.254V81.1129Z" fill="#FFFFA5"/>
<path d="M113.269 86.0238H96.4669V102.139H113.269V86.0238Z" fill="url(#paint15_linear)"/>
<path d="M112.981 86.3017H96.7583V101.861H112.981V86.3017Z" fill="#FF69B4"/>
<path d="M121.672 104.344H104.87V120.459H121.672V104.344Z" fill="url(#paint16_linear)"/>
<path d="M121.38 104.621H105.158V120.181H121.38V104.621Z" fill="#FF69B4"/>
<path d="M191.364 106.96H174.562V123.075H191.364V106.96Z" fill="url(#paint17_linear)"/>
<path d="M191.073 107.238H174.85V122.797H191.073V107.238Z" fill="#FF69B4"/>
<path d="M314.329 75.3539H297.527V91.4689H314.329V75.3539Z" fill="url(#paint18_linear)"/>
<path d="M314.041 75.6317H297.818V91.1911H314.041V75.6317Z" fill="#FF69B4"/>
<path d="M329.197 97.5743H312.395V113.689H329.197V97.5743Z" fill="url(#paint19_linear)"/>
<path d="M328.909 97.8521H312.686V113.412H328.909V97.8521Z" fill="#FF69B4"/>
<path d="M234.416 73.0553H217.614V89.1703H234.416V73.0553Z" fill="url(#paint20_linear)"/>
<path d="M234.128 73.3332H217.906V88.8925H234.128V73.3332Z" fill="#FF69B4"/>
<path d="M254.861 120.184H238.059V136.299H254.861V120.184Z" fill="url(#paint21_linear)"/>
<path d="M254.569 120.462H238.346V136.022H254.569V120.462Z" fill="#FF69B4"/>
<path d="M301.475 110.37C301.428 112.199 300.801 113.978 300.703 115.804C306.166 116.071 311.517 113.455 316.904 114.256C315.4 113.292 314.595 111.55 314.121 109.836C313.516 107.625 313.335 105.321 313.589 103.045C313.603 102.923 313.625 102.802 313.655 102.684C313.855 101.789 314.383 100.519 314.234 99.8151C314.052 98.8841 313.163 99.0682 312.366 99.1223C309.93 99.3069 307.506 99.6164 305.103 100.05C304.476 100.158 298.375 101.666 298.284 101.511C299.29 103.232 300.313 105.022 300.925 106.898C301.304 108.017 301.49 109.19 301.475 110.37Z" fill="#EE8E9E"/>
<path d="M247.645 104.712C248.113 105.345 248.674 105.904 249.31 106.372C249.721 106.707 250.144 107.05 250.588 107.357C251.379 107.956 252.319 108.331 253.309 108.439C254.606 108.526 257.359 107.772 258.164 106.671C258.504 106.118 258.665 105.476 258.627 104.831C258.613 103.954 258.463 103.085 258.182 102.254C257.677 100.904 256.968 99.6359 256.081 98.4944C255.145 97.2026 254.103 95.9325 252.708 95.1495C252.243 94.9033 251.764 94.6852 251.273 94.4964L248.723 93.4643C248.578 93.3962 248.421 93.3558 248.261 93.3453C247.58 93.3453 247.456 94.3809 247.842 94.9366C248.614 96.0588 250.351 96.3799 250.839 97.6429C250.427 97.6525 250.028 97.7919 249.7 98.041C249.373 98.2901 249.134 98.6359 249.018 99.0285C248.999 99.237 248.914 99.4341 248.774 99.5914C248.552 99.7682 248.202 99.6672 247.947 99.8007C247.499 100.039 247.696 100.703 247.649 101.208C247.605 101.655 247.321 102.041 247.183 102.471C247.088 102.855 247.081 103.255 247.161 103.643C247.241 104.03 247.406 104.395 247.645 104.712Z" fill="#EE8E9E"/>
<path d="M322.677 288.306C322.258 287.891 321.584 287.963 320.987 288.054C317.846 288.545 314.671 288.8 311.491 288.815C311.094 286.888 312.249 285.015 312.621 283.085C312.669 282.589 312.792 282.102 312.985 281.641C313.429 280.79 314.442 280.4 315.389 280.198C317.101 279.837 319.759 279.209 320.732 280.92C321.894 282.98 322.262 286.018 322.677 288.306Z" fill="#65617D"/>
<path d="M287.889 281.032C289.178 281.905 290.781 282.176 292.333 282.374C293.884 282.572 295.48 282.717 296.886 283.402C298.099 283.994 299.118 284.968 300.404 285.394C301.57 285.78 302.844 285.676 304.046 285.452C305.503 285.185 307.026 284.662 307.805 283.428C308.501 282.345 308.425 280.941 308.33 279.65C308.217 278.206 308.111 276.727 308.002 275.265C308.005 274.894 307.911 274.529 307.729 274.205C306.684 272.7 304.148 274.836 302.793 274.832C300.641 274.832 298.332 273.678 296.784 272.263C296.649 272.119 296.492 271.997 296.317 271.902C295.702 271.628 295.09 272.133 294.544 272.574C294.485 272.624 294.423 272.671 294.362 272.718C293.105 273.707 291.422 273.905 289.871 274.306C288.319 274.706 286.654 275.511 286.174 277.026C286.142 277.122 286.118 277.22 286.101 277.319C285.824 278.737 286.684 280.213 287.889 281.032Z" fill="#3F3D56"/>
<path opacity="0.05" d="M287.889 281.032C289.178 281.905 290.781 282.176 292.333 282.374C293.884 282.572 295.48 282.717 296.886 283.402C298.099 283.994 299.118 284.968 300.404 285.394C301.57 285.78 302.844 285.676 304.046 285.452C305.503 285.185 307.026 284.662 307.805 283.428C308.501 282.345 308.425 280.941 308.33 279.65C308.217 278.206 308.111 276.727 308.002 275.265C308.005 274.894 307.911 274.529 307.729 274.205C306.684 272.7 304.148 274.836 302.793 274.832C300.641 274.832 298.332 273.678 296.784 272.263C296.649 272.119 296.492 271.997 296.317 271.902C295.702 271.628 295.09 272.133 294.544 272.574C294.485 272.624 294.423 272.671 294.362 272.718C293.105 273.707 291.422 273.905 289.871 274.306C288.319 274.706 286.654 275.511 286.174 277.026C286.142 277.122 286.118 277.22 286.101 277.319C285.824 278.737 286.684 280.213 287.889 281.032Z" fill="black"/>
<path d="M287.889 281.522C289.179 282.396 290.781 282.666 292.333 282.865C293.884 283.063 295.48 283.208 296.886 283.893C298.099 284.488 299.118 285.459 300.404 285.885C301.57 286.271 302.845 286.166 304.046 285.943C305.584 285.618 306.932 284.712 307.805 283.417C308.501 282.334 308.425 280.931 308.33 279.639C308.217 278.196 308.111 276.716 308.002 275.255C308.005 274.884 307.911 274.518 307.729 274.194C306.684 272.689 304.148 274.825 302.794 274.822C300.641 274.822 298.332 273.667 296.784 272.253C296.649 272.108 296.492 271.986 296.317 271.892C295.702 271.617 295.09 272.123 294.544 272.563C294.903 273.656 295.412 274.695 296.055 275.652C297.148 277.236 298.867 278.448 300.79 278.589C301.752 278.657 302.739 278.47 303.668 278.715C304.596 278.96 305.463 279.902 305.125 280.797C304.786 281.692 303.668 281.88 302.728 281.912C301.413 281.981 300.065 282.046 298.82 281.641C298.058 281.389 297.363 280.974 296.634 280.667C293.484 279.372 289.503 280.097 286.898 277.91C286.653 277.686 286.387 277.485 286.104 277.308C285.423 278.737 286.684 280.703 287.889 281.522Z" fill="#E8EAF2"/>
<path opacity="0.05" d="M287.889 281.522C289.179 282.396 290.781 282.666 292.333 282.865C293.884 283.063 295.48 283.208 296.886 283.893C298.099 284.488 299.118 285.459 300.404 285.885C301.57 286.271 302.845 286.166 304.046 285.943C305.584 285.618 306.932 284.712 307.805 283.417C308.501 282.334 308.425 280.931 308.33 279.639C308.217 278.196 308.111 276.716 308.002 275.255C308.005 274.884 307.911 274.518 307.729 274.194C306.684 272.689 304.148 274.825 302.794 274.822C300.641 274.822 298.332 273.667 296.784 272.253C296.649 272.108 296.492 271.986 296.317 271.892C295.702 271.617 295.09 272.123 294.544 272.563C294.903 273.656 295.412 274.695 296.055 275.652C297.148 277.236 298.867 278.448 300.79 278.589C301.752 278.657 302.739 278.47 303.668 278.715C304.596 278.96 305.463 279.902 305.125 280.797C304.786 281.692 303.668 281.88 302.728 281.912C301.413 281.981 300.065 282.046 298.82 281.641C298.058 281.389 297.363 280.974 296.634 280.667C293.484 279.372 289.503 280.097 286.898 277.91C286.653 277.686 286.387 277.485 286.104 277.308C285.423 278.737 286.684 280.703 287.889 281.522Z" fill="black"/>
<path d="M322.091 185.976C323.096 190.861 322.142 195.942 319.432 200.143C318.703 201.276 317.829 202.34 317.275 203.571C316.912 204.45 316.629 205.361 316.43 206.291L314.041 216.102C313.393 218.751 312.744 221.45 312.948 224.167C313.083 226.062 313.564 228.191 312.387 229.688C312.097 229.973 311.852 230.299 311.659 230.655C311.546 231.073 311.546 231.514 311.659 231.932C312.868 239.055 313.768 246.499 311.583 253.391C309.601 259.638 309.485 266.558 307.802 272.877C307.594 273.663 307.354 274.49 306.753 275.042C306.302 275.411 305.762 275.66 305.187 275.763C302.703 276.352 300.087 275.662 297.764 274.602C296.135 273.855 294.383 272.545 294.522 270.773C294.591 269.929 295.086 269.189 295.425 268.413C296.084 266.89 296.154 265.191 296.318 263.542C296.766 259.399 298.055 255.405 299.027 251.353C300 247.3 300.663 243.071 299.84 238.987C298.162 230.542 295.471 222.327 291.827 214.515C291.669 214.104 291.42 213.734 291.098 213.432C290.77 213.165 290.337 213.043 290.056 212.711C289.776 212.379 289.692 211.873 289.583 211.43C289.219 210.138 288.144 209.185 287.423 208.049C285.602 205.183 286.177 201.51 286.246 198.125C286.312 194.831 285.835 191.508 286.378 188.26C286.92 185.013 288.8 181.693 291.961 180.683C293.527 180.181 295.221 180.293 296.86 180.455C305.507 181.31 313.935 182.887 322.091 185.976Z" fill="#303D5C"/>
<path opacity="0.05" d="M322.091 185.976C323.096 190.861 322.142 195.942 319.432 200.143C318.703 201.276 317.829 202.34 317.275 203.571C316.912 204.45 316.629 205.361 316.43 206.291L314.041 216.102C313.393 218.751 312.744 221.45 312.948 224.167C313.083 226.062 313.564 228.191 312.387 229.688C312.097 229.973 311.852 230.299 311.659 230.655C311.546 231.073 311.546 231.514 311.659 231.932C312.868 239.055 313.768 246.499 311.583 253.391C309.601 259.638 309.485 266.558 307.802 272.877C307.594 273.663 307.354 274.49 306.753 275.042C306.302 275.411 305.762 275.66 305.187 275.763C302.703 276.352 300.087 275.662 297.764 274.602C296.135 273.855 294.383 272.545 294.522 270.773C294.591 269.929 295.086 269.189 295.425 268.413C296.084 266.89 296.154 265.191 296.318 263.542C296.766 259.399 298.055 255.405 299.027 251.353C300 247.3 300.663 243.071 299.84 238.987C298.162 230.542 295.471 222.327 291.827 214.515C291.669 214.104 291.42 213.734 291.098 213.432C290.77 213.165 290.337 213.043 290.056 212.711C289.776 212.379 289.692 211.873 289.583 211.43C289.219 210.138 288.144 209.185 287.423 208.049C285.602 205.183 286.177 201.51 286.246 198.125C286.312 194.831 285.835 191.508 286.378 188.26C286.92 185.013 288.8 181.693 291.961 180.683C293.527 180.181 295.221 180.293 296.86 180.455C305.507 181.31 313.935 182.887 322.091 185.976Z" fill="black"/>
<path d="M286.731 206.627C286.758 207.905 286.905 209.178 287.168 210.43C288.698 218.934 290.328 227.418 292.06 235.884C292.213 236.605 292.362 237.352 292.562 238.074C293.208 240.429 294.336 242.628 295.877 244.533C303.089 253.438 303.711 266.374 307.627 277.117C307.889 277.838 308.155 278.56 308.435 279.282C309.141 281.103 309.947 282.885 310.85 284.618C310.954 284.872 311.125 285.092 311.346 285.257C311.589 285.378 311.861 285.43 312.132 285.409C315.658 285.432 319.141 284.651 322.313 283.125C322.769 282.961 323.155 282.648 323.405 282.237C323.525 281.909 323.564 281.558 323.518 281.212C323.409 279.083 323.278 276.882 322.254 275.006C321.573 273.886 320.728 272.872 319.749 271.996C319.443 265.314 318.776 258.616 317.294 252.089C316.532 248.751 315.589 245.377 313.651 242.555C312.194 240.473 310.14 238.42 310.395 235.905C310.508 234.823 310.974 233.43 310.067 232.78C309.67 232.495 309.084 232.459 308.818 232.059C308.711 231.869 308.651 231.656 308.643 231.438C308.456 229.714 308.564 227.97 308.964 226.282C309.226 225.163 309.619 224.066 309.739 222.922C309.86 221.778 309.656 220.534 308.887 219.675C308.84 217.38 308.887 214.984 308.854 212.711C308.832 211.401 308.807 210.073 309.179 208.821C309.357 208.218 309.623 207.644 309.758 207.017C310.242 204.815 309.029 202.174 310.486 200.428C311.087 199.706 312.012 199.345 312.795 198.818C314.365 197.779 315.392 196.083 315.964 194.304C316.536 192.525 316.693 190.642 316.864 188.776C316.906 188.379 316.906 187.979 316.864 187.582C316.84 187.377 316.786 187.176 316.704 186.986C316.256 185.99 315.054 185.604 313.983 185.348C307.183 183.732 300.214 182.925 293.221 182.945C290.635 181.199 289.179 181.823 288.082 183.667C287.479 184.796 286.991 185.982 286.625 187.207C286.123 188.704 286.093 197.097 285.605 198.602C284.924 200.572 286.756 204.57 286.731 206.627Z" fill="#303D5C"/>
<path d="M333.495 130.266C333.688 131.587 333.047 132.886 332.974 134.217C332.912 135.379 333.287 136.516 333.502 137.663C334.336 142.138 332.733 146.666 331.098 150.917C330.79 151.603 330.598 152.334 330.53 153.082C330.486 154.471 331.291 155.741 331.513 157.113C331.976 159.999 329.834 162.702 329.787 165.621C329.787 166.964 330.195 168.331 329.856 169.63C329.63 170.5 329.084 171.243 328.694 172.055C328.006 173.498 327.824 175.118 327.164 176.565C325.981 179.185 323.431 180.896 321.009 182.465C319.628 182.01 318.135 181.469 317.366 180.239C317.034 179.633 316.821 178.971 316.736 178.287C316.212 175.302 316.23 172.257 316.248 169.23C316.21 166.634 316.354 164.04 316.678 161.464C317.166 158.173 318.244 155.002 319.016 151.765C319.993 147.684 320.473 143.466 322.01 139.551C323.344 136.108 325.423 133.019 327.612 130.064C328.446 128.935 329.106 127.322 330.726 127.582C331.409 127.696 332.04 128.015 332.535 128.494C333.03 128.974 333.365 129.592 333.495 130.266Z" fill="#F12B2B"/>
<path opacity="0.05" d="M333.495 130.266C333.688 131.587 333.047 132.886 332.974 134.217C332.912 135.379 333.287 136.516 333.502 137.663C334.336 142.138 332.733 146.666 331.098 150.917C330.79 151.603 330.598 152.334 330.53 153.082C330.486 154.471 331.291 155.741 331.513 157.113C331.976 159.999 329.834 162.702 329.787 165.621C329.787 166.964 330.195 168.331 329.856 169.63C329.63 170.5 329.084 171.243 328.694 172.055C328.006 173.498 327.824 175.118 327.164 176.565C325.981 179.185 323.431 180.896 321.009 182.465C319.628 182.01 318.135 181.469 317.366 180.239C317.034 179.633 316.821 178.971 316.736 178.287C316.212 175.302 316.23 172.257 316.248 169.23C316.21 166.634 316.354 164.04 316.678 161.464C317.166 158.173 318.244 155.002 319.016 151.765C319.993 147.684 320.473 143.466 322.01 139.551C323.344 136.108 325.423 133.019 327.612 130.064C328.446 128.935 329.106 127.322 330.726 127.582C331.409 127.696 332.04 128.015 332.535 128.494C333.03 128.974 333.365 129.592 333.495 130.266Z" fill="black"/>
<path opacity="0.1" d="M298.273 101.497C299.279 103.218 300.302 105.008 300.914 106.884C301.895 107.123 302.902 107.245 303.912 107.245C307.835 107.245 310.614 105.033 312.919 102.24C313.12 101.341 314.376 100.508 314.223 99.8007C314.041 98.8697 313.152 99.0537 312.355 99.1079C309.919 99.2925 307.495 99.602 305.092 100.035C304.465 100.143 298.375 101.652 298.273 101.497Z" fill="black"/>
<path d="M303.923 106.906C310.865 106.906 316.492 101.33 316.492 94.4531C316.492 87.5757 310.865 82.0005 303.923 82.0005C296.981 82.0005 291.353 87.5757 291.353 94.4531C291.353 101.33 296.981 106.906 303.923 106.906Z" fill="#EE8E9E"/>
<path opacity="0.1" d="M288.039 183.678C290.224 183.551 292.409 183.638 294.595 183.724C295.96 183.738 297.32 183.877 298.66 184.139C300.31 184.5 301.854 185.254 303.482 185.72C306.09 186.474 308.843 186.506 311.542 186.77C313.316 186.942 315.078 187.215 316.82 187.589C316.796 187.384 316.742 187.183 316.66 186.994C316.212 185.998 315.01 185.612 313.939 185.355C307.14 183.739 300.17 182.933 293.178 182.952C290.592 181.206 289.135 181.83 288.039 183.678Z" fill="black"/>
<path d="M296.605 114.84C297.155 115.468 297.891 116.161 298.703 115.959C298.996 115.858 299.272 115.712 299.519 115.526C300.976 114.599 302.746 114.382 304.451 114.13C307.887 113.616 311.282 112.86 314.609 111.867C315.575 111.518 316.588 111.314 317.614 111.261C319.745 111.261 321.621 112.675 322.968 114.321C324.316 115.966 325.248 117.889 326.56 119.553C327.492 120.74 328.603 121.787 329.474 123.017C331.659 126.124 332.147 130.18 331.579 133.936C331.011 137.692 329.495 141.228 327.995 144.725C327.135 146.728 326.268 148.741 325.081 150.567C325.587 153.421 325.321 156.683 323.952 159.227C323.504 160.061 322.957 160.873 322.812 161.807C322.743 162.438 322.768 163.075 322.888 163.698L323.529 168.205C323.722 169.58 323.919 170.951 324.17 172.315C324.633 174.812 325.263 177.522 324.094 179.78C322.695 182.483 324.163 185.951 323.795 188.967C319.863 187.461 315.742 186.49 311.546 186.081C308.843 185.817 306.083 185.785 303.486 185.034C301.857 184.565 300.317 183.822 298.663 183.447C297.323 183.187 295.961 183.049 294.595 183.035C291.582 182.916 288.548 182.797 285.569 183.237C285.325 183.273 285.034 183.291 284.888 183.097C284.822 182.988 284.791 182.862 284.797 182.736C284.751 181.629 285.018 180.532 285.569 179.568C285.933 178.904 286.476 178.251 286.461 177.489C286.434 177.133 286.345 176.784 286.199 176.457L284.881 172.964C283.762 170.02 284.294 166.595 283.715 163.503C283.263 161.084 282.973 158.638 282.848 156.182C282.739 154.082 282.808 151.805 284.087 150.127C284.461 149.723 284.785 149.276 285.052 148.795C285.236 148.286 285.314 147.744 285.281 147.204C285.31 143.004 285.189 138.805 284.917 134.607C286.035 132.623 287.197 130.591 288.312 128.606C289.608 126.297 290.927 123.941 291.451 121.35C291.816 119.632 291.786 117.868 292.034 116.136C292.059 115.695 292.213 115.271 292.478 114.916C292.905 114.44 293.622 114.371 294.267 114.389C295.065 114.421 295.853 114.573 296.605 114.84Z" fill="#F12B2B"/>
<path opacity="0.1" d="M250.584 107.357C251.375 107.956 252.316 108.331 253.305 108.439C254.602 108.526 257.356 107.772 258.161 106.671C258.5 106.118 258.661 105.476 258.623 104.831C258.448 104.774 258.267 104.739 258.084 104.726C256.674 104.643 255.236 104.56 253.866 104.896C252.497 105.231 251.171 106.054 250.588 107.331L250.584 107.357Z" fill="black"/>
<path d="M292.409 134.293C291.641 135.235 290.847 136.209 289.761 136.765C288.512 137.407 287.04 137.422 285.635 137.393C279.841 137.27 274.07 136.642 268.388 135.516C267.741 135.406 267.106 135.237 266.49 135.011C265.808 134.689 265.164 134.292 264.571 133.828C262.702 132.496 260.805 131.139 259.381 129.342C257.69 127.174 256.628 124.591 256.307 121.87C254.952 120.635 254.234 118.878 253.557 117.179C253.224 116.459 253.012 115.69 252.93 114.902C252.894 114.097 253.433 113.253 253.294 112.459C253.034 111.093 252.335 109.846 251.302 108.905C251.081 108.751 250.915 108.532 250.825 108.28C250.798 108.07 250.839 107.857 250.941 107.671C251.517 106.393 252.843 105.57 254.22 105.235C255.596 104.899 257.028 104.986 258.437 105.069C258.947 105.101 259.319 105.336 259.818 105.43L260.801 107.995C260.934 108.424 261.154 108.822 261.446 109.164C261.665 109.361 261.897 109.541 262.142 109.706C262.64 110.126 263.026 110.661 263.268 111.264C263.509 111.866 263.597 112.518 263.526 113.162C264.414 113.504 265.138 114.168 265.55 115.019C265.962 115.87 266.031 116.845 265.744 117.745C266.483 117.903 267.17 118.245 267.737 118.741C268.305 119.236 268.734 119.867 268.985 120.574C269.055 120.896 269.2 121.198 269.408 121.455C269.731 121.703 270.132 121.831 270.541 121.815C271.633 121.884 272.621 122.75 273.629 122.281C274.768 121.752 276.041 121.574 277.283 121.772C277.539 121.833 277.803 121.856 278.066 121.841C278.29 121.802 278.506 121.727 278.707 121.621C279.161 121.36 279.652 121.167 280.164 121.05C280.421 120.998 280.688 121.019 280.933 121.114C281.178 121.208 281.39 121.37 281.544 121.581C281.908 121.198 282.109 120.708 282.429 120.3C282.571 120.081 282.772 119.906 283.008 119.794C283.245 119.682 283.509 119.637 283.77 119.665C283.435 119.369 283.77 118.781 284.21 118.672C284.651 118.564 285.103 118.723 285.551 118.723C286.713 118.723 287.605 117.669 288.734 117.395C289.772 117.146 291.156 117.446 291.688 116.525C291.877 116.201 291.914 115.761 292.234 115.562C292.451 115.455 292.698 115.426 292.934 115.479C293.672 115.577 294.389 115.793 295.057 116.118C296.15 120.336 295.574 124.717 294.744 128.992C294.347 131.024 293.72 132.669 292.409 134.293Z" fill="#F12B2B"/>
<path opacity="0.1" d="M292.446 149.409L297.858 160.234C297.272 159.234 296.037 158.845 295.065 158.206C293.826 157.322 292.893 156.081 292.395 154.652C291.895 153.226 291.546 151.753 291.353 150.257C291.244 149.571 291.014 148.608 291.353 147.987C291.983 148.113 292.187 148.9 292.446 149.409Z" fill="black"/>
<path opacity="0.1" d="M308.017 158.578C309.237 159.776 310.734 160.656 312.078 161.717C315.218 164.192 317.454 167.591 319.639 170.925C320.256 171.802 320.774 172.744 321.184 173.733C320.929 173.953 320.546 173.733 320.295 173.505L316.041 169.803C315.519 169.38 315.044 168.903 314.624 168.382C313.895 167.4 313.56 166.17 312.89 165.134C312.22 164.098 311.244 163.33 310.308 162.525C309.372 161.72 304.844 157.939 305.937 156.481C306.727 156.871 307.379 157.953 308.017 158.578Z" fill="black"/>
<path d="M298.729 111.716C300.076 110.882 301.664 110.532 303.227 110.247C304.165 110.036 305.131 109.968 306.09 110.045C306.975 110.153 307.824 110.492 308.716 110.539C309.965 110.611 311.164 110.106 312.358 109.781C313.553 109.457 314.963 109.327 315.979 110.052C316.195 110.263 316.468 110.407 316.765 110.467C317.074 110.43 317.36 110.29 317.578 110.07C318.433 109.464 319.471 109.164 320.521 109.219C321.572 109.274 322.572 109.681 323.358 110.373C325.664 112.513 325.405 116.695 328.093 118.312C328.84 118.759 329.79 118.997 330.224 119.755C330.327 119.994 330.449 120.224 330.588 120.444C330.768 120.641 330.99 120.798 331.236 120.902C332.021 121.249 332.768 121.673 333.465 122.169C333.813 122.42 334.106 122.738 334.326 123.104C334.546 123.47 334.69 123.876 334.748 124.298C334.76 124.922 334.624 125.54 334.351 126.102C333.03 129.314 330.737 132.042 327.788 133.911C324.838 135.779 321.377 136.697 317.88 136.538C317.264 136.509 316.598 136.426 316.154 136.004C315.894 135.714 315.689 135.38 315.549 135.018C314.281 132.381 311.907 130.432 310.38 127.924C309.477 126.431 308.898 124.76 307.958 123.288C306.56 121.05 304.393 119.387 302.28 117.803C301.085 116.901 299.756 115.955 298.252 116.017C296.915 116.074 295.939 116.147 296.43 114.519C296.834 113.343 297.649 112.348 298.729 111.716Z" fill="#F12B2B"/>
<path opacity="0.05" d="M298.729 111.716C300.076 110.882 301.664 110.532 303.227 110.247C304.165 110.036 305.131 109.968 306.09 110.045C306.975 110.153 307.824 110.492 308.716 110.539C309.965 110.611 311.164 110.106 312.358 109.781C313.553 109.457 314.963 109.327 315.979 110.052C316.195 110.263 316.468 110.407 316.765 110.467C317.074 110.43 317.36 110.29 317.578 110.07C318.433 109.464 319.471 109.164 320.521 109.219C321.572 109.274 322.572 109.681 323.358 110.373C325.664 112.513 325.405 116.695 328.093 118.312C328.84 118.759 329.79 118.997 330.224 119.755C330.327 119.994 330.449 120.224 330.588 120.444C330.768 120.641 330.99 120.798 331.236 120.902C332.021 121.249 332.768 121.673 333.465 122.169C333.813 122.42 334.106 122.738 334.326 123.104C334.546 123.47 334.69 123.876 334.748 124.298C334.76 124.922 334.624 125.54 334.351 126.102C333.03 129.314 330.737 132.042 327.788 133.911C324.838 135.779 321.377 136.697 317.88 136.538C317.264 136.509 316.598 136.426 316.154 136.004C315.894 135.714 315.689 135.38 315.549 135.018C314.281 132.381 311.907 130.432 310.38 127.924C309.477 126.431 308.898 124.76 307.958 123.288C306.56 121.05 304.393 119.387 302.28 117.803C301.085 116.901 299.756 115.955 298.252 116.017C296.915 116.074 295.939 116.147 296.43 114.519C296.834 113.343 297.649 112.348 298.729 111.716Z" fill="black"/>
<path d="M292.187 292.214C293.098 293.055 294.351 293.423 295.564 293.686C298.328 294.285 301.155 294.498 303.974 294.715L306.72 294.924C309.401 295.122 312.085 295.328 314.777 295.339C318.098 295.351 321.414 295.067 324.684 294.491C324.815 294.505 324.948 294.487 325.071 294.44C325.194 294.394 325.305 294.319 325.393 294.221C325.481 294.124 325.545 294.008 325.58 293.882C325.614 293.756 325.618 293.623 325.591 293.495C325.534 290.177 325.127 286.874 324.374 283.641C324.061 282.313 321.657 285.29 321.552 285.416C320.885 286.166 320.379 286.498 319.366 286.563C316.602 286.715 313.502 285.048 311.306 283.568C310.836 283.22 310.336 282.914 309.812 282.652C309.43 282.474 309.024 282.352 308.607 282.291C307.183 282.161 305.752 282.449 304.491 283.117C302.841 283.929 301.391 285.095 299.756 285.928C298.428 286.607 296.993 287.057 295.513 287.26C294.016 287.465 292.234 287.563 291.459 288.847C290.821 289.923 291.28 291.366 292.187 292.214Z" fill="#3F3D56"/>
<path d="M292.187 292.705C293.098 293.546 294.351 293.914 295.563 294.177C298.328 294.776 301.154 294.989 303.974 295.205L306.72 295.415C309.401 295.613 312.085 295.819 314.777 295.83C318.098 295.842 321.414 295.558 324.684 294.982C324.833 294.978 324.98 294.944 325.115 294.882C325.25 294.82 325.371 294.731 325.471 294.621C325.587 294.44 326.086 293.722 326.083 293.509C326.028 290.193 325.121 286.885 324.371 283.655C324.057 282.327 321.653 285.304 321.548 285.43C320.881 286.181 320.375 286.513 319.362 286.578C316.598 286.729 313.498 285.062 311.302 283.583C310.832 283.235 310.332 282.928 309.809 282.666C309.427 282.488 309.021 282.367 308.603 282.305C308.967 284.276 311.812 286.657 313.283 287.382C316.263 288.847 319.803 288.104 323.118 288.288C323.361 288.282 323.601 288.34 323.813 288.458C324.214 288.718 324.236 289.277 324.225 289.75C324.196 290.536 324.094 291.456 323.409 291.857C323.069 292.019 322.694 292.098 322.316 292.084C314.123 292.441 305.915 292.156 297.767 291.233C296.394 291.142 295.043 290.845 293.761 290.352C292.923 289.965 292.143 289.467 291.44 288.873C290.406 289.692 291.28 291.864 292.187 292.705Z" fill="#E8EAF2"/>
<path d="M299.031 94.3195C299.078 95.6077 298.193 98.1047 300.623 97.4083C302.08 96.9897 302.48 95.2902 304.32 95.6691C306.159 96.0479 306.582 98.2924 307.204 99.761C307.711 100.929 308.497 101.956 309.495 102.755C310.493 103.554 311.672 104.101 312.93 104.347C313.449 104.468 313.989 104.468 314.507 104.347C315.695 104.012 316.372 102.799 316.856 101.677C317.274 100.727 317.621 99.7473 317.895 98.747C318.08 98.0373 318.202 97.3129 318.259 96.582C318.297 96.0872 318.297 95.5902 318.259 95.0953C318.037 92.1689 316.357 89.4987 314.201 87.478C312.045 85.4573 309.433 84.0032 306.851 82.5634C306.007 82.041 305.094 81.6378 304.138 81.3654C303.195 81.1771 302.229 81.1382 301.275 81.25C300.017 81.3002 298.781 81.588 297.632 82.0979C297.162 82.3286 296.729 82.6291 296.35 82.9892C295.817 83.4857 295.438 84.123 295.258 84.8259C294.791 86.7203 296.008 88.4342 296.999 89.9173C297.876 91.2524 298.965 92.6633 299.031 94.3195Z" fill="#3F3D56"/>
<path opacity="0.1" d="M258.124 121.956C258.645 120.661 260.83 117.074 260.197 115.84C259.542 116.761 258.985 117.746 258.536 118.781C258.124 119.784 258.459 121.13 258.124 121.956Z" fill="black"/>
<path opacity="0.1" d="M296.944 89.9245C295.953 88.427 294.733 86.7239 295.199 84.8331C295.43 84.0019 295.926 83.2667 296.612 82.7366C296.451 83.0134 296.328 83.3108 296.248 83.6207C295.782 85.5115 297.002 87.2291 297.993 88.7121C298.871 90.04 299.96 91.4509 300.025 93.1071C300.073 94.3917 299.184 96.8923 301.617 96.1959C303.074 95.7809 303.475 94.0778 305.314 94.4603C307.153 94.8427 307.572 97.0799 308.195 98.5486C308.704 99.7172 309.493 100.745 310.493 101.544C311.493 102.344 312.675 102.889 313.935 103.135C314.454 103.256 314.994 103.256 315.513 103.135C315.775 103.057 316.021 102.935 316.241 102.774C315.87 103.51 315.225 104.074 314.442 104.347C313.923 104.468 313.383 104.468 312.865 104.347C311.608 104.099 310.431 103.551 309.435 102.752C308.439 101.954 307.653 100.927 307.146 99.761C306.523 98.2924 306.119 96.0552 304.265 95.6691C302.411 95.283 302.018 96.9933 300.568 97.4083C298.135 98.1047 299.024 95.6041 298.976 94.3195C298.914 92.6633 297.822 91.2524 296.944 89.9245Z" fill="black"/>
<path opacity="0.1" d="M296.405 87.3662C296.627 87.7308 296.871 88.0826 297.133 88.4198C297.649 89.0607 298.224 89.6515 298.853 90.1843C299.217 90.5055 299.614 90.805 300.014 91.0864C300.761 91.6057 301.545 92.07 302.36 92.4756C304.739 93.6628 307.31 94.4061 309.871 95.1386L314.89 96.582C315.505 97.0439 316.634 97.8774 317.88 98.747C318.065 98.0373 318.187 97.3129 318.244 96.582C318.283 96.0872 318.283 95.5902 318.244 95.0953C318.022 92.1689 316.343 89.4987 314.187 87.478C312.03 85.4573 309.419 84.0032 306.837 82.5634C305.993 82.041 305.079 81.6378 304.123 81.3654C303.181 81.1771 302.215 81.1382 301.26 81.25C300.003 81.3002 298.766 81.588 297.618 82.0979C297.147 82.3286 296.715 82.6291 296.336 82.9892C296.05 83.4025 295.833 83.858 295.691 84.3387C295.407 85.3635 295.844 86.4605 296.405 87.3662Z" fill="black"/>
<path d="M296.405 87.0306C296.627 87.3952 296.871 87.747 297.133 88.0843C297.649 88.7251 298.224 89.316 298.853 89.8487C299.217 90.1699 299.614 90.4694 300.014 90.7508C300.761 91.2701 301.545 91.7345 302.36 92.1401C304.739 93.3272 307.31 94.0706 309.871 94.8067L314.89 96.25C316.642 97.5635 322.502 101.865 323.489 101.327C324.651 100.696 318.288 96.232 318.288 96.232L317.993 96.4521C318.925 95.8711 319.413 94.5252 319.625 93.3633C319.989 91.2813 320.171 89.1162 319.672 87.0595C319.173 85.0027 317.927 83.0433 316.03 82.0799C315.185 81.6505 314.161 81.3582 313.553 80.6979C313.461 80.6002 313.38 80.4925 313.313 80.3767C313.277 80.3222 313.246 80.2656 313.218 80.2071C313.152 80.0256 313.063 79.8534 312.952 79.6947C312.588 79.2942 311.969 79.4133 311.44 79.4782L311.273 79.4963C311.178 79.4963 311.083 79.4963 310.989 79.4963C309.102 79.5396 307.274 78.4968 305.365 78.4968C303.271 78.4968 301.493 79.6947 299.65 80.5139C299.286 80.6798 298.922 80.8314 298.594 80.9865C297.264 81.6 296.263 82.2531 295.713 83.9996C295.407 85.0279 295.844 86.1249 296.405 87.0306Z" fill="#F12B2B"/>
<path opacity="0.1" d="M311 79.5071C310.897 79.6812 310.861 79.8859 310.897 80.0842C310.933 80.2826 311.039 80.4618 311.196 80.5896C311.43 80.7538 311.705 80.8511 311.99 80.8711C312.195 80.8976 312.4 80.9133 312.606 80.918C312.885 80.9387 313.166 80.8903 313.422 80.7773C313.473 80.7527 313.52 80.7225 313.564 80.6871C313.472 80.5894 313.391 80.4816 313.324 80.3659C313.276 80.402 313.229 80.3948 313.039 80.3659C312.695 80.3481 312.354 80.29 312.023 80.1927C311.847 80.1494 311.686 80.0593 311.558 79.9322C311.429 79.805 311.338 79.6456 311.295 79.471L311 79.5071Z" fill="black"/>
<path opacity="0.1" d="M318.175 96.1815C317.911 96.3448 317.616 96.454 317.308 96.5026C317.088 96.5603 316.862 96.5965 316.634 96.6108C316.058 96.5858 315.496 96.4289 314.992 96.1526L318.175 96.1815Z" fill="black"/>
<path d="M160.404 134.257L160.594 134.207L161.085 135.249L165.139 143.91C164.964 144.127 164.803 144.356 164.658 144.595C164.607 144.678 164.556 144.761 164.509 144.859C164.462 144.956 164.411 145.053 164.367 145.154C164.349 145.186 164.334 145.22 164.323 145.255C164.312 145.277 164.316 145.277 164.294 145.328C164.272 145.378 164.254 145.432 164.236 145.483C164.208 145.519 164.194 145.553 164.164 145.587L164.159 145.602L164.141 145.645L164.101 145.787V145.8V145.851L164.079 145.959C164.079 145.962 164.079 145.965 164.079 145.968C164.079 145.97 164.079 145.972 164.079 145.974C164.079 145.975 164.079 145.977 164.079 145.979C164.079 145.982 164.079 145.985 164.079 145.988V145.992V146.002V146.006V146.02C164.08 146.027 164.081 146.033 164.081 146.039C164.08 146.042 164.08 146.046 164.079 146.049V146.078V146.1V146.147C164.069 146.267 164.069 146.387 164.079 146.508V146.598C163.875 146.54 163.65 146.327 163.467 145.8C163.408 145.627 163.377 145.446 163.376 145.263C163.342 144.135 164.302 142.944 164.453 142.756C164.46 142.748 164.466 142.741 164.469 142.737L160.9 135.285L160.404 134.257Z" fill="url(#paint22_linear)"/>
<path d="M165.015 147.724H165.037C165.105 147.697 165.168 147.659 165.223 147.612L165.214 147.626C165.217 147.624 165.22 147.621 165.223 147.619L165.168 147.706L165.136 147.756C165.118 147.782 165.102 147.81 165.088 147.839C165.055 147.891 165.026 147.945 164.996 148.001C164.99 148.012 164.985 148.023 164.979 148.034C164.91 148.171 164.858 148.315 164.822 148.463C164.822 148.467 164.821 148.471 164.821 148.475C164.821 148.478 164.822 148.482 164.822 148.485C164.822 148.486 164.822 148.486 164.822 148.487C164.822 148.487 164.822 148.488 164.822 148.489C164.822 148.489 164.822 148.49 164.822 148.49C164.822 148.491 164.822 148.492 164.822 148.492C164.821 148.497 164.821 148.503 164.821 148.508C164.821 148.51 164.821 148.511 164.821 148.512C164.821 148.513 164.822 148.515 164.822 148.516C164.822 148.518 164.822 148.519 164.822 148.521C164.823 148.523 164.824 148.525 164.824 148.526C164.825 148.528 164.825 148.53 164.825 148.532C164.825 148.533 164.825 148.533 164.825 148.534C164.824 148.537 164.824 148.54 164.822 148.543C164.731 148.408 164.613 148.293 164.476 148.203C164.367 148.139 164.278 148.046 164.22 147.935C164.161 147.823 164.135 147.697 164.145 147.572C164.148 147.428 164.175 147.285 164.225 147.15C164.287 147.302 164.375 147.441 164.487 147.561L164.542 147.612C164.586 147.65 164.637 147.681 164.691 147.702C164.713 147.711 164.734 147.718 164.757 147.724H164.793C164.866 147.742 164.943 147.742 165.015 147.724Z" fill="url(#paint23_linear)"/>
<path d="M179.024 271.469C179.024 271.469 184.487 272.133 187.121 271.231C189.754 270.329 186.305 275.11 182.724 276.243C180.193 276.974 177.585 277.413 174.952 277.55L170.741 273.627L166.272 273.966L167.051 278.297L165.664 278.426L165.125 272.747L179.024 271.469Z" fill="#444053"/>
<path opacity="0.1" d="M179.024 271.469C179.024 271.469 184.487 272.133 187.121 271.231C189.754 270.329 186.305 275.11 182.724 276.243C180.193 276.974 177.585 277.413 174.952 277.55L170.741 273.627L166.272 273.966L167.051 278.297L165.664 278.426L165.125 272.747L179.024 271.469Z" fill="black"/>
<path d="M186.895 281.385C186.895 281.385 193.433 282.803 196.729 282.006C200.025 281.208 195.298 286.621 190.818 287.595C186.338 288.57 181.231 288.317 181.231 288.317L176.594 283.067L171.131 282.977L171.579 288.335H169.878V281.385H186.895Z" fill="#444053"/>
<path opacity="0.1" d="M186.895 281.385C186.895 281.385 193.433 282.803 196.729 282.006C200.025 281.208 195.298 286.621 190.818 287.595C186.338 288.57 181.231 288.317 181.231 288.317L176.594 283.067L171.131 282.977L171.579 288.335H169.878V281.385H186.895Z" fill="black"/>
<path d="M162.71 158.127C162.71 158.127 151.513 170.46 158.23 184.392C158.23 184.392 158.594 186.878 158.321 187.322C158.048 187.766 159.395 193.532 159.395 193.532C159.395 193.532 159.577 203.996 159.395 205.779C159.213 207.561 159.031 208.528 159.031 208.528C159.031 208.528 156.529 227.859 157.334 233.632C158.139 239.405 158.499 249.693 158.499 249.693L161.814 277.38L179.013 274.187L171.218 236.205L170.949 229.461C170.949 229.461 174.176 221.208 172.741 217.037C171.306 212.866 173.105 159.711 173.105 159.711L162.71 158.127Z" fill="#303D5C"/>
<path opacity="0.05" d="M162.71 158.127C162.71 158.127 151.513 170.46 158.23 184.392C158.23 184.392 158.594 186.878 158.321 187.322C158.048 187.766 159.395 193.532 159.395 193.532C159.395 193.532 159.577 203.996 159.395 205.779C159.213 207.561 159.031 208.528 159.031 208.528C159.031 208.528 156.529 227.859 157.334 233.632C158.139 239.405 158.499 249.693 158.499 249.693L161.814 277.38L179.013 274.187L171.218 236.205L170.949 229.461C170.949 229.461 174.176 221.208 172.741 217.037C171.306 212.866 173.105 159.711 173.105 159.711L162.71 158.127Z" fill="black"/>
<path d="M170.949 217.755C172.919 221.483 171.677 230.532 171.677 230.532C169.08 232.751 170.512 252.096 170.512 252.096C170.512 252.096 168.72 271.177 167.558 273.385C166.396 275.594 166.571 284.745 166.571 284.745C179.738 287.141 188.337 281.995 188.337 281.995C188.337 281.995 184.127 272.498 184.039 272.058C183.988 271.809 183.431 272.483 183.263 272.678C183.351 272.559 183.58 272.249 184.039 271.596C185.831 269.11 184.039 264.318 184.039 264.318C184.039 264.318 186.279 248.877 185.205 247.456C184.13 246.034 185.383 240.802 186.01 239.561C186.636 238.319 187.441 235.389 187.441 234.148C187.494 233.183 187.675 232.229 187.98 231.312C190.756 227.404 190.22 220.927 190.22 220.927C190.22 220.927 190.042 211.61 191.652 204.245C193.262 196.881 189.641 176.024 189.641 176.024C189.641 176.024 190.847 171.943 189.951 170.435C189.546 169.756 189.587 168.158 189.776 166.61C189.994 164.715 190.399 162.893 190.399 162.893L165.962 158.596C165.449 159.444 164.979 160.266 164.546 161.057C156.463 175.851 161.912 181.35 161.912 181.35L167.099 197.187C167.099 197.187 168.971 214.031 170.949 217.755Z" fill="#303D5C"/>
<path d="M209.736 101.951L213.229 104.888C213.229 104.888 213.914 104.347 214.831 103.535C217.017 101.58 220.557 98.0398 219.231 96.5387C217.41 94.4891 215.589 95.817 215.476 95.9108C215.673 95.7051 219.727 91.4004 218.066 91.7468C216.405 92.0932 213.229 95.8314 213.229 95.8314L210.719 100.223L209.736 101.951Z" fill="#EFB7B9"/>
<path d="M162.888 149.874L167.008 151.115L163.875 156.528L160.291 151.913L162.888 149.874Z" fill="#EFB7B9"/>
<path d="M172.562 99.0248C179.044 99.0248 184.298 93.8196 184.298 87.3986C184.298 80.9777 179.044 75.7724 172.562 75.7724C166.081 75.7724 160.827 80.9777 160.827 87.3986C160.827 93.8196 166.081 99.0248 172.562 99.0248Z" fill="#EFB7B9"/>
<path d="M179.461 91.6601C179.461 91.6601 168.8 108.421 178.922 109.864C189.044 111.308 165.307 121.491 165.307 121.491L156.438 112.618C156.438 112.618 165.664 96.8201 164.232 90.7869C162.801 84.7537 179.461 91.6601 179.461 91.6601Z" fill="#EFB7B9"/>
<path opacity="0.1" d="M164.535 161.082C166.902 161.793 169.315 162.346 171.757 162.738C171.757 162.738 184.957 168.544 189.765 166.635C189.984 164.741 190.388 162.918 190.388 162.918L165.951 158.621C165.438 159.469 164.964 160.292 164.535 161.082Z" fill="black"/>
<path d="M152.409 117.215L154.795 122.104L157.49 127.61L157.855 128.397L161.049 135.253L165.11 143.942C165.11 143.942 163.675 145.627 164.123 146.959C164.542 148.204 165.198 147.662 165.281 147.587C165.205 147.691 164.338 148.846 165.11 149.355C165.882 149.863 165.646 151.04 165.646 151.04C165.646 151.04 162.331 156.452 161.705 158.404C161.078 160.357 171.739 162.045 171.739 162.045C171.739 162.045 186.877 168.699 190.639 165.416C194.402 162.132 190.639 146.692 190.639 146.692C190.639 146.692 190.639 137.819 189.652 137.021C188.665 136.224 189.135 130.071 189.135 130.071C191.732 125.381 189.94 122.707 189.94 122.707L190.668 110.64C190.668 110.64 189.503 109.395 188.607 109.309C188.041 109.255 187.472 109.255 186.906 109.309C186.906 109.309 186.432 109.15 185.751 108.948C184.316 108.544 181.934 107.984 181.082 108.407C179.829 109.027 171.768 107.429 171.768 107.429C168.294 106.919 164.795 106.594 161.286 106.455C160.087 106.377 158.884 106.507 157.731 106.837C154.817 107.728 154.3 109.825 154.3 109.825C154.3 109.825 154.664 111.6 153.225 113.906C151.787 116.212 152.409 117.215 152.409 117.215Z" fill="#F12B2B"/>
<path opacity="0.1" d="M209.736 101.951L213.229 104.888C213.229 104.888 213.914 104.347 214.831 103.535C215.108 100.54 212.533 100.143 210.719 100.223L209.736 101.951Z" fill="black"/>
<path d="M189.135 110.561L190.657 110.651C190.657 110.651 194.238 111.091 195.392 110.027C196.547 108.962 200.677 108.609 200.677 108.609C200.677 108.609 201.843 106.299 203.096 105.592C204.349 104.885 207.397 103.55 207.467 102.839C207.536 102.128 208.632 100.8 208.632 100.8C208.632 100.8 215.349 99.2017 214.365 104.437C213.382 109.673 207.944 114.195 207.944 114.195C207.944 114.195 207.317 117.125 205.256 117.835C203.194 118.546 189.849 124.756 187.7 123.158C185.551 121.559 189.135 110.561 189.135 110.561Z" fill="#F12B2B"/>
<path opacity="0.1" d="M153.214 113.902C154.646 111.596 154.289 109.821 154.289 109.821C154.289 109.821 154.806 107.725 157.72 106.833C158.288 106.663 158.873 106.549 159.465 106.494C156.594 107.396 156.081 109.468 156.081 109.468C156.081 109.468 156.445 111.243 155.006 113.549C153.568 115.854 154.198 116.832 154.198 116.832L156.587 121.722L159.279 127.224L159.665 128.015L162.859 134.852L166.92 143.541C166.92 143.541 165.485 145.23 165.933 146.562C166.352 147.807 167.008 147.262 167.092 147.19C167.015 147.291 166.148 148.449 166.92 148.958C167.693 149.466 167.456 150.643 167.456 150.643C167.456 150.643 164.141 156.055 163.515 158.007C162.888 159.96 173.549 161.645 173.549 161.645C173.549 161.645 184.061 166.267 189.743 165.906C184.913 167.783 171.757 162.002 171.757 162.002C171.757 162.002 161.096 160.313 161.723 158.361C162.349 156.409 165.664 151 165.664 151C165.664 151 165.933 149.845 165.128 149.315C164.323 148.784 165.223 147.651 165.3 147.547C165.216 147.623 164.571 148.164 164.141 146.919C163.693 145.587 165.128 143.902 165.128 143.902L161.067 135.21L157.873 128.354L157.509 127.567L154.813 122.061L152.428 117.171C152.428 117.171 151.779 116.212 153.214 113.902Z" fill="black"/>
<path d="M154.037 115.883L152.428 117.215C152.136 118.09 151.68 118.903 151.084 119.611C150.188 120.589 147.769 130.259 147.769 130.259C147.871 130.482 147.924 130.725 147.924 130.97C147.924 131.215 147.871 131.457 147.769 131.681C147.405 132.402 148.498 133.456 148.498 133.456C148.498 133.456 149.033 133.279 148.133 134.253C147.234 135.228 148.942 136.39 148.942 136.39C148.942 136.39 156.285 148.806 157.807 150.138C159.33 151.469 160.852 154.93 160.852 154.93C160.852 154.93 164.043 149.972 164.793 149.878L161.661 142.87C161.661 142.87 159.508 133.106 157.898 131.323C156.288 129.541 158.703 123.421 158.703 123.421L154.037 115.883Z" fill="#F12B2B"/>
<path opacity="0.1" d="M152.988 133.987C154.336 135.589 156.7 135.928 158.791 135.693C159.097 135.657 159.406 135.61 159.709 135.553C160.167 135.471 160.62 135.367 161.067 135.239C162.668 134.782 164.174 134.049 165.518 133.074C165.811 132.823 166.15 132.629 166.516 132.503C167.354 132.294 168.184 132.911 168.64 133.633C169.095 134.355 169.31 135.206 169.776 135.921C170.694 137.339 172.471 138.021 174.176 138.06C175.88 138.1 177.534 137.595 179.159 137.093C177.844 135.491 176.496 133.824 175.961 131.829C175.663 130.527 175.578 129.187 175.709 127.859C176.095 121.581 178.295 114.963 183.464 111.304C184.36 110.673 185.442 109.926 185.74 108.966C184.305 108.562 181.923 108.003 181.071 108.425C179.818 109.045 171.757 107.447 171.757 107.447C168.283 106.937 164.784 106.612 161.275 106.473C160.076 106.395 158.874 106.525 157.72 106.855C158.161 109.522 158.543 112.174 158.015 114.794C157.648 116.426 157.051 117.999 156.241 119.466C155.782 120.35 155.287 121.22 154.784 122.093C153.422 124.522 152.122 126.957 151.87 129.671C151.765 131.204 152.012 132.825 152.988 133.987Z" fill="black"/>
<path opacity="0.1" d="M170.701 146.471C170.002 146.381 169.295 146.147 168.603 146.291C168.015 146.465 167.476 146.775 167.033 147.197L171.637 147.222C172.821 147.222 174.606 147.294 175.513 146.464C174.682 145.649 171.885 146.623 170.701 146.471Z" fill="black"/>
<path d="M186.658 86.0491C187.357 87.0025 187.797 88.1174 187.937 89.2874C188.076 90.4574 187.911 91.6433 187.456 92.7319C186.727 94.4458 185.296 95.7882 184.425 97.4408C183.767 98.7231 183.448 100.15 183.499 101.588C183.55 103.026 183.969 104.427 184.717 105.661C185.056 106.1 185.304 106.601 185.445 107.137C185.653 108.49 184.24 109.46 183.114 110.258C177.942 113.909 175.746 120.531 175.36 126.813C175.227 128.141 175.311 129.481 175.607 130.782C176.143 132.778 177.494 134.445 178.809 136.047C177.184 136.548 175.531 137.054 173.823 137.014C172.114 136.974 170.344 136.292 169.423 134.874C168.956 134.153 168.738 133.308 168.286 132.586C167.835 131.865 167 131.251 166.17 131.457C165.802 131.579 165.461 131.771 165.168 132.024C163.191 133.46 160.872 134.364 158.437 134.647C156.347 134.885 153.983 134.542 152.639 132.94C151.663 131.775 151.411 130.158 151.546 128.65C152.012 123.277 156.605 119.051 157.669 113.762C158.528 109.475 156.969 105.101 156.685 100.75C156.259 94.3015 158.623 88.0265 160.951 81.9861C161.457 80.4893 162.142 79.0576 162.99 77.721C164.939 74.892 168.308 73.1961 171.732 72.8569C173.002 72.6824 174.296 72.806 175.509 73.2177C176.733 73.6868 177.753 74.56 178.747 75.4152C180.969 77.3241 183.252 79.3123 184.531 81.9392C185.052 83.0217 185.394 84.1656 185.988 85.2084L186.658 86.0491Z" fill="#3F3D56"/>
<g opacity="0.1">
<path opacity="0.1" d="M184.546 83.6928C183.963 82.65 183.624 81.4953 183.089 80.4236C182.591 79.4242 181.967 78.4917 181.231 77.6488C182.567 78.8797 183.676 80.3315 184.509 81.9392C185.015 82.9784 185.354 84.1042 185.904 85.1181L185.198 84.5264C185.382 84.7695 185.548 85.0265 185.693 85.2949C185.245 84.81 184.86 84.2719 184.546 83.6928Z" fill="black"/>
<path opacity="0.1" d="M156.995 133.11C159.43 132.83 161.75 131.927 163.726 130.49C164.02 130.239 164.36 130.047 164.728 129.923C165.562 129.714 166.392 130.331 166.848 131.053C166.942 131.204 167.026 131.367 167.106 131.529C166.811 131.396 166.479 131.364 166.163 131.439C165.795 131.561 165.454 131.753 165.161 132.005C163.184 133.442 160.865 134.346 158.43 134.629C156.339 134.867 153.976 134.524 152.632 132.922C152.464 132.715 152.315 132.494 152.187 132.262C153.542 133.124 155.352 133.297 156.995 133.11Z" fill="black"/>
<path opacity="0.1" d="M172.384 135.484C174.085 135.524 175.742 135.018 177.367 134.517C176.052 132.915 174.704 131.248 174.169 129.252C173.871 127.951 173.786 126.611 173.917 125.283C174.303 119.001 176.503 112.379 181.675 108.728C182.801 107.93 184.225 106.96 184.007 105.603C183.863 105.07 183.616 104.57 183.278 104.131C182.53 102.898 182.11 101.496 182.058 100.059C182.007 98.6206 182.325 97.1934 182.983 95.9108C183.857 94.2581 185.278 92.9158 186.017 91.1982C186.411 90.252 186.588 89.231 186.535 88.2089C186.482 87.1868 186.201 86.1891 185.711 85.2877C185.957 85.5447 186.22 85.7858 186.498 86.0094C186.697 86.285 186.913 86.5478 187.146 86.796C187.636 87.698 187.917 88.6965 187.969 89.7194C188.022 90.7422 187.844 91.7638 187.448 92.7102C186.72 94.4241 185.289 95.7665 184.418 97.4191C183.759 98.7014 183.441 100.128 183.491 101.566C183.542 103.004 183.962 104.406 184.709 105.639C185.049 106.078 185.297 106.58 185.438 107.115C185.646 108.468 184.232 109.439 183.107 110.236C177.935 113.888 175.738 120.509 175.352 126.791C175.22 128.119 175.303 129.459 175.6 130.761C176.135 132.756 177.487 134.423 178.802 136.025C177.177 136.527 175.524 137.032 173.815 136.992C172.107 136.953 170.337 136.271 169.415 134.852C169.353 134.759 169.299 134.661 169.244 134.564C170.187 135.148 171.272 135.466 172.384 135.484Z" fill="black"/>
</g>
<path opacity="0.2" d="M118.477 53.4185V60.9961H85.2668C86.2793 59.6057 87.3138 58.2345 88.37 56.8825C88.5157 56.6949 88.6614 56.5217 88.8144 56.3232L90.3697 54.3855L90.5846 54.1221L91.1491 53.4401L118.477 53.4185Z" fill="#F12B2B"/>
<path opacity="0.2" d="M187.194 53.4185H152.296V60.9889H187.194V53.4185Z" fill="#F12B2B"/>
<path opacity="0.2" d="M267.343 53.4185H232.446V60.9889H267.343V53.4185Z" fill="#F12B2B"/>
<path opacity="0.2" d="M335.13 53.4185H300.233V60.9889H335.13V53.4185Z" fill="#F12B2B"/>
</g>
<defs>
<linearGradient id="paint0_linear" x1="80.6192" y1="94.0814" x2="80.6192" y2="77.9663" gradientUnits="userSpaceOnUse">
<stop stop-color="#808080" stop-opacity="0.25"/>
<stop offset="0.54" stop-color="#808080" stop-opacity="0.12"/>
<stop offset="1" stop-color="#808080" stop-opacity="0.1"/>
</linearGradient>
<linearGradient id="paint1_linear" x1="6998" y1="4055.56" x2="6998" y2="3335.7" gradientUnits="userSpaceOnUse">
<stop stop-color="#808080" stop-opacity="0.25"/>
<stop offset="0.54" stop-color="#808080" stop-opacity="0.12"/>
<stop offset="1" stop-color="#808080" stop-opacity="0.1"/>
</linearGradient>
<linearGradient id="paint2_linear" x1="10574.6" y1="5484.18" x2="10574.6" y2="4764.32" gradientUnits="userSpaceOnUse">
<stop stop-color="#808080" stop-opacity="0.25"/>
<stop offset="0.54" stop-color="#808080" stop-opacity="0.12"/>
<stop offset="1" stop-color="#808080" stop-opacity="0.1"/>
</linearGradient>
<linearGradient id="paint3_linear" x1="14224" y1="5971.39" x2="14224" y2="5251.69" gradientUnits="userSpaceOnUse">
<stop stop-color="#808080" stop-opacity="0.25"/>
<stop offset="0.54" stop-color="#808080" stop-opacity="0.12"/>
<stop offset="1" stop-color="#808080" stop-opacity="0.1"/>
</linearGradient>
<linearGradient id="paint4_linear" x1="15201.9" y1="6447.7" x2="15201.9" y2="5728" gradientUnits="userSpaceOnUse">
<stop stop-color="#808080" stop-opacity="0.25"/>
<stop offset="0.54" stop-color="#808080" stop-opacity="0.12"/>
<stop offset="1" stop-color="#808080" stop-opacity="0.1"/>
</linearGradient>
<linearGradient id="paint5_linear" x1="16428.1" y1="5175.1" x2="16428.1" y2="4455.24" gradientUnits="userSpaceOnUse">
<stop stop-color="#808080" stop-opacity="0.25"/>
<stop offset="0.54" stop-color="#808080" stop-opacity="0.12"/>
<stop offset="1" stop-color="#808080" stop-opacity="0.1"/>
</linearGradient>
<linearGradient id="paint6_linear" x1="16179.9" y1="6207.33" x2="16179.9" y2="5487.63" gradientUnits="userSpaceOnUse">
<stop stop-color="#808080" stop-opacity="0.25"/>
<stop offset="0.54" stop-color="#808080" stop-opacity="0.12"/>
<stop offset="1" stop-color="#808080" stop-opacity="0.1"/>
</linearGradient>
<linearGradient id="paint7_linear" x1="8078.3" y1="4055.56" x2="8078.3" y2="3335.7" gradientUnits="userSpaceOnUse">
<stop stop-color="#808080" stop-opacity="0.25"/>
<stop offset="0.54" stop-color="#808080" stop-opacity="0.12"/>
<stop offset="1" stop-color="#808080" stop-opacity="0.1"/>
</linearGradient>
<linearGradient id="paint8_linear" x1="4378.1" y1="5839.41" x2="4378.1" y2="5119.55" gradientUnits="userSpaceOnUse">
<stop stop-color="#808080" stop-opacity="0.25"/>
<stop offset="0.54" stop-color="#808080" stop-opacity="0.12"/>
<stop offset="1" stop-color="#808080" stop-opacity="0.1"/>
</linearGradient>
<linearGradient id="paint9_linear" x1="7569.47" y1="5116.13" x2="7569.47" y2="4396.43" gradientUnits="userSpaceOnUse">
<stop stop-color="#808080" stop-opacity="0.25"/>
<stop offset="0.54" stop-color="#808080" stop-opacity="0.12"/>
<stop offset="1" stop-color="#808080" stop-opacity="0.1"/>
</linearGradient>
<linearGradient id="paint10_linear" x1="11696.8" y1="4676.38" x2="11696.8" y2="3956.68" gradientUnits="userSpaceOnUse">
<stop stop-color="#808080" stop-opacity="0.25"/>
<stop offset="0.54" stop-color="#808080" stop-opacity="0.12"/>
<stop offset="1" stop-color="#808080" stop-opacity="0.1"/>
</linearGradient>
<linearGradient id="paint11_linear" x1="15875" y1="4160.35" x2="15875" y2="3440.66" gradientUnits="userSpaceOnUse">
<stop stop-color="#808080" stop-opacity="0.25"/>
<stop offset="0.54" stop-color="#808080" stop-opacity="0.12"/>
<stop offset="1" stop-color="#808080" stop-opacity="0.1"/>
</linearGradient>
<linearGradient id="paint12_linear" x1="12741.5" y1="4055.56" x2="12741.5" y2="3335.7" gradientUnits="userSpaceOnUse">
<stop stop-color="#808080" stop-opacity="0.25"/>
<stop offset="0.54" stop-color="#808080" stop-opacity="0.12"/>
<stop offset="1" stop-color="#808080" stop-opacity="0.1"/>
</linearGradient>
<linearGradient id="paint13_linear" x1="12696.7" y1="5484.18" x2="12696.7" y2="4764.32" gradientUnits="userSpaceOnUse">
<stop stop-color="#808080" stop-opacity="0.25"/>
<stop offset="0.54" stop-color="#808080" stop-opacity="0.12"/>
<stop offset="1" stop-color="#808080" stop-opacity="0.1"/>
</linearGradient>
<linearGradient id="paint14_linear" x1="9141.55" y1="4410.79" x2="9141.55" y2="3691.09" gradientUnits="userSpaceOnUse">
<stop stop-color="#808080" stop-opacity="0.25"/>
<stop offset="0.54" stop-color="#808080" stop-opacity="0.12"/>
<stop offset="1" stop-color="#808080" stop-opacity="0.1"/>
</linearGradient>
<linearGradient id="paint15_linear" x1="4934.11" y1="4647.54" x2="4934.11" y2="3927.85" gradientUnits="userSpaceOnUse">
<stop stop-color="#808080" stop-opacity="0.25"/>
<stop offset="0.54" stop-color="#808080" stop-opacity="0.12"/>
<stop offset="1" stop-color="#808080" stop-opacity="0.1"/>
</linearGradient>
<linearGradient id="paint16_linear" x1="5329.97" y1="5484.18" x2="5329.97" y2="4764.32" gradientUnits="userSpaceOnUse">
<stop stop-color="#808080" stop-opacity="0.25"/>
<stop offset="0.54" stop-color="#808080" stop-opacity="0.12"/>
<stop offset="1" stop-color="#808080" stop-opacity="0.1"/>
</linearGradient>
<linearGradient id="paint17_linear" x1="8614.56" y1="5603.46" x2="8614.56" y2="4883.77" gradientUnits="userSpaceOnUse">
<stop stop-color="#808080" stop-opacity="0.25"/>
<stop offset="0.54" stop-color="#808080" stop-opacity="0.12"/>
<stop offset="1" stop-color="#808080" stop-opacity="0.1"/>
</linearGradient>
<linearGradient id="paint18_linear" x1="14410.1" y1="4160.35" x2="14410.1" y2="3440.66" gradientUnits="userSpaceOnUse">
<stop stop-color="#808080" stop-opacity="0.25"/>
<stop offset="0.54" stop-color="#808080" stop-opacity="0.12"/>
<stop offset="1" stop-color="#808080" stop-opacity="0.1"/>
</linearGradient>
<linearGradient id="paint19_linear" x1="15110.8" y1="5175.1" x2="15110.8" y2="4455.24" gradientUnits="userSpaceOnUse">
<stop stop-color="#808080" stop-opacity="0.25"/>
<stop offset="0.54" stop-color="#808080" stop-opacity="0.12"/>
<stop offset="1" stop-color="#808080" stop-opacity="0.1"/>
</linearGradient>
<linearGradient id="paint20_linear" x1="10643.8" y1="4055.56" x2="10643.8" y2="3335.7" gradientUnits="userSpaceOnUse">
<stop stop-color="#808080" stop-opacity="0.25"/>
<stop offset="0.54" stop-color="#808080" stop-opacity="0.12"/>
<stop offset="1" stop-color="#808080" stop-opacity="0.1"/>
</linearGradient>
<linearGradient id="paint21_linear" x1="11607.1" y1="6207.33" x2="11607.1" y2="5487.63" gradientUnits="userSpaceOnUse">
<stop stop-color="#808080" stop-opacity="0.25"/>
<stop offset="0.54" stop-color="#808080" stop-opacity="0.12"/>
<stop offset="1" stop-color="#808080" stop-opacity="0.1"/>
</linearGradient>
<linearGradient id="paint22_linear" x1="-35388" y1="180143" x2="-35388" y2="49604" gradientUnits="userSpaceOnUse">
<stop stop-color="#808080" stop-opacity="0.25"/>
<stop offset="0.54" stop-color="#808080" stop-opacity="0.12"/>
<stop offset="1" stop-color="#808080" stop-opacity="0.1"/>
</linearGradient>
<linearGradient id="paint23_linear" x1="-35388" y1="180143" x2="-35388" y2="49604" gradientUnits="userSpaceOnUse">
<stop stop-color="#808080" stop-opacity="0.25"/>
<stop offset="0.54" stop-color="#808080" stop-opacity="0.12"/>
<stop offset="1" stop-color="#808080" stop-opacity="0.1"/>
</linearGradient>
<clipPath id="clip0">
<rect width="429" height="302" fill="white"/>
</clipPath>
</defs>
</svg>
