<svg width="334" height="218" viewBox="0 0 334 218" fill="none" xmlns="http://www.w3.org/2000/svg">
<g clip-path="url(#clip0)">
<path d="M311.484 117.311L310.601 129.414C310.554 130.063 310.275 130.672 309.815 131.13C309.355 131.588 308.746 131.865 308.099 131.908C307.726 131.933 307.353 131.879 307.002 131.751C306.651 131.623 306.33 131.424 306.06 131.164C305.791 130.905 305.578 130.593 305.435 130.246C305.293 129.9 305.224 129.528 305.233 129.154L305.514 117.311L315.902 83.8937L314.645 63.4211L324.479 63.0688L323.776 86.6676L311.484 117.311Z" fill="#A0616A"/>
<path d="M326.511 67.2273C322.125 66.2128 318.371 67.3953 315.459 71.5078L313.204 54.4014C313.093 53.3267 313.372 52.248 313.99 51.363C314.608 50.4779 315.523 49.8458 316.568 49.5824C317.677 49.3029 318.85 49.4592 319.848 50.0193C320.845 50.5793 321.592 51.5008 321.934 52.5949L326.511 67.2273Z" fill="#F12B2B"/>
<path d="M327.028 47.1489C316.894 42.8261 306.484 45.565 294.157 47.4658C294.043 45.1639 292.652 42.3622 294.109 40.7563C295.878 38.8051 295.715 36.7551 294.65 34.6932C291.928 29.4206 295.829 23.8103 299.767 19.1454C300.655 18.0963 301.777 17.272 303.042 16.7395C304.307 16.207 305.68 15.9812 307.048 16.0806L314.344 16.6033C317.98 16.8637 318.862 19.3603 319.892 22.8668C321.634 25.2432 322.567 27.6129 321.98 29.9703C324.589 31.7588 325.028 33.9177 323.855 36.3515C322.861 37.8839 322.871 39.3756 323.9 40.826C325.252 42.6751 326.287 44.7369 326.963 46.9269L327.028 47.1489Z" fill="#2F2E41"/>
<path d="M290.855 204.917H286.008L283.129 164.764L295.421 164.412L290.855 204.917Z" fill="#A0616A"/>
<path d="M291.207 217.949C289.914 218.541 288.831 213.748 287.741 214.822C284.692 217.828 277.376 217.154 277.376 217.154C277.13 217.075 276.903 216.947 276.708 216.777C276.514 216.607 276.355 216.399 276.243 216.166C276.131 215.933 276.067 215.68 276.055 215.422C276.043 215.163 276.083 214.905 276.174 214.663C276.283 214.373 276.46 214.113 276.69 213.907C276.92 213.701 277.197 213.554 277.497 213.479L280.74 212.666L285.832 203.684L291.031 203.332C292.19 204.814 292.999 206.54 293.397 208.381C293.795 210.221 293.771 212.128 293.328 213.958C292.856 215.889 292.128 217.527 291.207 217.949Z" fill="#2F2E41"/>
<path d="M323.131 204.917H318.284L315.405 164.764L328.048 162.299L323.131 204.917Z" fill="#A0616A"/>
<path d="M323.482 217.949C322.19 218.541 321.107 213.748 320.017 214.822C316.967 217.828 309.651 217.154 309.651 217.154C309.406 217.075 309.179 216.947 308.984 216.777C308.789 216.607 308.631 216.399 308.519 216.166C308.406 215.933 308.342 215.68 308.33 215.422C308.319 215.163 308.359 214.905 308.45 214.663C308.558 214.373 308.735 214.113 308.966 213.907C309.196 213.701 309.473 213.554 309.772 213.479L313.016 212.666L318.108 203.684L323.658 202.98L323.798 203.21C324.871 204.944 325.563 206.888 325.827 208.911C326.092 210.935 325.923 212.992 325.332 214.945C324.87 216.428 324.242 217.602 323.482 217.949Z" fill="#2F2E41"/>
<path d="M334 166.577C326.166 170.054 321.473 166.291 313.498 167.429C311.221 167.753 308.539 134.17 306.25 134.311C303.338 134.489 300.815 168.334 297.885 168.218C290.517 167.902 283.21 166.743 276.105 164.764C283.699 135.224 292.667 108.513 292.611 86.571L315.394 84.8099L318.53 89.7965C323.558 101.628 328.695 114.767 331.254 128.517L334 166.577Z" fill="#2F2E41"/>
<path d="M303.85 41.1345C309.669 41.1345 314.386 36.4037 314.386 30.5679C314.386 24.7321 309.669 20.0013 303.85 20.0013C298.031 20.0013 293.314 24.7321 293.314 30.5679C293.314 36.4037 298.031 41.1345 303.85 41.1345Z" fill="#A0616A"/>
<path d="M315.44 49.2357L302.445 49.94L300.338 38.3166L310.874 36.5558L315.44 49.2357Z" fill="#A0616A"/>
<path d="M316.448 86.571L299.799 86.9732L292.611 87.9798C289.083 76.2921 286.113 64.6312 293.314 54.8711L301.743 46.4178L314.386 46.0656L314.553 46.1616C316.561 47.3153 318.117 49.1205 318.965 51.2799C319.813 53.4393 319.902 55.8239 319.218 58.0409C316.08 68.2662 316.478 77.9221 316.448 86.571Z" fill="#F12B2B"/>
<path d="M315.81 30.5146C315.814 27.3603 314.661 24.3146 312.571 21.9579V18.2047H301.146C300.275 18.2046 299.412 18.3767 298.607 18.7111C297.803 19.0454 297.071 19.5355 296.455 20.1533C295.839 20.7711 295.351 21.5045 295.017 22.3117C294.684 23.1189 294.512 23.984 294.512 24.8577V24.8577H302.127C300.074 28.6489 299.188 32.6237 301.166 36.453C302.359 38.7632 302.412 43.3526 300.777 45.5562C301.637 45.6054 302.498 45.6054 303.357 45.5562C306.887 45.5562 316.512 46.0167 318.836 43.7082C321.19 41.3704 315.81 34.0991 315.81 30.5146Z" fill="#2F2E41"/>
<path d="M298.094 118.419H230.603C230.176 118.42 229.768 118.591 229.467 118.893C229.165 119.195 228.995 119.605 228.994 120.033V191.08C228.995 191.508 229.165 191.917 229.467 192.219C229.768 192.522 230.176 192.692 230.603 192.693H298.094C298.521 192.692 298.929 192.522 299.231 192.219C299.532 191.917 299.702 191.508 299.703 191.08V120.033C299.702 119.605 299.532 119.195 299.231 118.893C298.929 118.591 298.521 118.42 298.094 118.419Z" fill="#E6E6E6"/>
<path d="M296.486 120.436H232.211C231.892 120.437 231.586 120.565 231.36 120.792C231.134 121.018 231.006 121.325 231.005 121.646V189.467C231.006 189.787 231.133 190.095 231.359 190.321C231.585 190.548 231.892 190.676 232.211 190.677H296.486C296.806 190.676 297.112 190.548 297.338 190.321C297.564 190.095 297.691 189.787 297.692 189.467V121.646C297.691 121.325 297.564 121.018 297.338 120.791C297.112 120.565 296.806 120.437 296.486 120.436Z" fill="white"/>
<path d="M292.26 119.327L291.377 131.431C291.33 132.079 291.051 132.689 290.591 133.147C290.131 133.605 289.522 133.881 288.875 133.924C288.502 133.949 288.129 133.896 287.778 133.768C287.427 133.64 287.106 133.44 286.836 133.181C286.567 132.922 286.354 132.609 286.211 132.263C286.069 131.917 286 131.545 286.009 131.17L286.29 119.327L295.07 85.8665L295.421 65.4377L305.255 65.0855L304.552 88.6843L292.26 119.327Z" fill="#A0616A"/>
<path d="M306.308 66.8466C302.139 65.1463 298.245 65.7157 294.719 69.3121L295.202 52.0637C295.263 50.9851 295.709 49.9645 296.459 49.1891C297.209 48.4138 298.213 47.9354 299.286 47.8419C300.425 47.7425 301.559 48.0837 302.455 48.7956C303.352 49.5075 303.943 50.5362 304.107 51.6709L306.308 66.8466Z" fill="#F12B2B"/>
<path d="M291.716 137.591C291.9 137.591 292.076 137.665 292.206 137.795C292.336 137.925 292.409 138.102 292.409 138.286V139.676C292.409 139.86 292.336 140.037 292.206 140.167C292.076 140.298 291.9 140.371 291.716 140.371H236.981C236.89 140.371 236.8 140.353 236.716 140.318C236.632 140.283 236.555 140.232 236.491 140.167C236.427 140.103 236.376 140.026 236.341 139.942C236.306 139.858 236.288 139.767 236.288 139.676V138.286C236.288 138.195 236.306 138.105 236.341 138.02C236.376 137.936 236.427 137.859 236.491 137.795C236.555 137.73 236.632 137.679 236.716 137.644C236.8 137.609 236.89 137.591 236.981 137.591H291.716Z" fill="#E6E6E6"/>
<path d="M291.716 144.193C291.9 144.193 292.076 144.266 292.206 144.396C292.336 144.526 292.409 144.703 292.409 144.887V146.277C292.409 146.461 292.336 146.638 292.206 146.768C292.076 146.899 291.9 146.972 291.716 146.972H236.981C236.89 146.972 236.8 146.954 236.716 146.919C236.632 146.884 236.555 146.833 236.491 146.768C236.427 146.704 236.376 146.627 236.341 146.543C236.306 146.459 236.288 146.368 236.288 146.277V144.887C236.288 144.796 236.306 144.706 236.341 144.621C236.376 144.537 236.427 144.461 236.491 144.396C236.555 144.332 236.632 144.28 236.716 144.245C236.8 144.211 236.89 144.193 236.981 144.193H291.716" fill="#E6E6E6"/>
<path d="M291.716 150.794C291.9 150.794 292.076 150.867 292.206 150.997C292.336 151.128 292.409 151.304 292.409 151.489V152.878C292.409 153.063 292.336 153.239 292.206 153.37C292.076 153.5 291.9 153.573 291.716 153.573H236.981C236.797 153.573 236.621 153.5 236.491 153.37C236.361 153.239 236.288 153.063 236.288 152.878V151.489C236.288 151.304 236.361 151.128 236.491 150.997C236.621 150.867 236.797 150.794 236.981 150.794H291.716Z" fill="#F12B2B"/>
<path d="M291.716 157.539C291.9 157.539 292.076 157.613 292.206 157.743C292.336 157.873 292.409 158.05 292.409 158.234V159.624C292.409 159.808 292.336 159.985 292.206 160.115C292.076 160.246 291.9 160.319 291.716 160.319H236.981C236.89 160.319 236.8 160.301 236.716 160.266C236.632 160.231 236.555 160.18 236.491 160.115C236.427 160.051 236.376 159.974 236.341 159.89C236.306 159.806 236.288 159.715 236.288 159.624V158.234C236.288 158.143 236.306 158.053 236.341 157.968C236.376 157.884 236.427 157.807 236.491 157.743C236.555 157.678 236.632 157.627 236.716 157.592C236.8 157.557 236.89 157.539 236.981 157.539H291.716" fill="#E6E6E6"/>
<path d="M291.716 164.141C291.9 164.141 292.076 164.214 292.206 164.344C292.336 164.474 292.409 164.651 292.409 164.835V166.225C292.409 166.41 292.336 166.586 292.206 166.717C292.076 166.847 291.9 166.92 291.716 166.92H236.981C236.89 166.92 236.8 166.902 236.716 166.867C236.632 166.832 236.555 166.781 236.491 166.717C236.427 166.652 236.376 166.575 236.341 166.491C236.306 166.407 236.288 166.316 236.288 166.225V164.835C236.288 164.744 236.306 164.654 236.341 164.57C236.376 164.485 236.427 164.409 236.491 164.344C236.555 164.28 236.632 164.228 236.716 164.194C236.8 164.159 236.89 164.141 236.981 164.141H291.716Z" fill="#E6E6E6"/>
<path d="M291.716 170.742C291.9 170.742 292.076 170.815 292.206 170.945C292.336 171.076 292.409 171.252 292.409 171.437V172.826C292.409 173.011 292.336 173.187 292.206 173.318C292.076 173.448 291.9 173.521 291.716 173.521H236.981C236.797 173.521 236.621 173.448 236.491 173.318C236.361 173.187 236.288 173.011 236.288 172.826V171.437C236.288 171.252 236.361 171.076 236.491 170.945C236.621 170.815 236.797 170.742 236.981 170.742H291.716Z" fill="#E6E6E6"/>
<path d="M50.1608 203.03L44.7864 203.329L32.5448 120.683L21.0496 203.18L15.2274 201.832C11.9942 166.27 7.78462 129.513 10.7487 113.496H51.6537C57.728 129.417 53.6733 166.798 50.1608 203.03Z" fill="#2F2E41"/>
<path d="M16.7239 217.994C16.0159 217.957 15.3247 217.764 14.6996 217.429C14.0746 217.093 13.5312 216.623 13.1083 216.053C12.6854 215.482 12.3935 214.825 12.2534 214.128C12.1134 213.431 12.1286 212.711 12.2981 212.021L14.7437 202.057C16.7881 199.509 18.6182 199.621 20.261 202.057L21.9402 201.335L23.1397 209.996L21.4855 214.843C21.1306 215.808 20.4772 216.635 19.6205 217.202C18.7639 217.769 17.7489 218.046 16.7239 217.994Z" fill="#2F2E41"/>
<path d="M49.2614 217.994C49.9694 217.957 50.6607 217.764 51.2857 217.429C51.9108 217.093 52.4541 216.623 52.877 216.053C53.2999 215.482 53.5918 214.825 53.7319 214.128C53.8719 213.431 53.8567 212.711 53.6872 212.021L51.2416 202.057C49.1972 199.509 47.3672 199.621 45.7243 202.057L44.0451 201.335L42.8457 209.996L44.4999 214.843C44.8547 215.808 45.5081 216.635 46.3648 217.202C47.2214 217.769 48.2364 218.046 49.2614 217.994Z" fill="#2F2E41"/>
<path d="M33.7391 29.0534C40.3351 29.0534 45.6821 23.6907 45.6821 17.0756C45.6821 10.4605 40.3351 5.0979 33.7391 5.0979C27.1431 5.0979 21.7961 10.4605 21.7961 17.0756C21.7961 23.6907 27.1431 29.0534 33.7391 29.0534Z" fill="#FFB8B8"/>
<path d="M40.9048 39.2343H25.6774L26.5731 23.3639H40.9048V39.2343Z" fill="#FFB8B8"/>
<path d="M57.0281 115.293H8.65871C15.711 91.4445 14.4713 65.8966 9.25587 39.5339L22.3932 35.3417L25.9761 32.3472C30.4723 37.8391 35.4438 37.7937 40.9049 32.0478L45.3836 35.3417L58.5209 39.8333C51.5916 65.2323 50.4646 90.4096 57.0281 115.293Z" fill="#F12B2B"/>
<path d="M20.9835 13.9808C20.482 12.5435 20.288 11.0163 20.4143 9.49886C20.5406 7.98139 20.9843 6.50762 21.7164 5.1736C23.1759 2.57786 25.9864 0.144621 31.3897 0.00736682C43.1786 -0.29208 48.2871 8.62241 47.6229 11.2365C46.9587 13.8506 44.5824 20.0701 44.5824 20.0701C44.5824 20.0701 46.056 14.0812 43.1087 13.4823C40.1615 12.8834 28.741 10.4879 25.4254 13.1829C24.4798 13.909 23.7431 14.8735 23.2901 15.9781C22.8371 17.0827 22.684 18.288 22.8466 19.4712L20.9835 13.9808Z" fill="#2F2E41"/>
<path d="M69.2612 118.823H1.76955C1.34385 118.826 0.936455 118.997 0.635433 119.298C0.33441 119.6 0.163944 120.009 0.160879 120.436V191.483C0.162127 191.911 0.33201 192.32 0.633424 192.623C0.934838 192.925 1.34328 193.095 1.76955 193.097H69.2612C69.6875 193.095 70.096 192.925 70.3974 192.623C70.6988 192.32 70.8687 191.911 70.8699 191.483V120.436C70.8687 120.008 70.6988 119.599 70.3974 119.296C70.096 118.994 69.6875 118.824 69.2612 118.823Z" fill="#E6E6E6"/>
<path d="M67.6526 120.839H3.37821C3.05851 120.84 2.75218 120.968 2.52612 121.195C2.30006 121.421 2.17264 121.729 2.1717 122.049V189.87C2.17264 190.191 2.30006 190.498 2.52612 190.725C2.75218 190.951 3.05851 191.079 3.37821 191.08H67.6526C67.9723 191.079 68.2786 190.951 68.5047 190.725C68.7307 190.498 68.8582 190.191 68.8591 189.87V122.049C68.8582 121.729 68.7307 121.421 68.5047 121.195C68.2786 120.968 67.9723 120.84 67.6526 120.839Z" fill="white"/>
<path d="M55.4619 124.614C54.8512 124.375 54.2945 124.017 53.8247 123.559C53.355 123.1 52.9819 122.552 52.7274 121.947C52.473 121.341 52.3425 120.691 52.3437 120.033C52.3448 119.376 52.4776 118.726 52.7342 118.121L56.7295 108.705L56.1323 78.7609L54.0423 68.5798L64.791 64.3876L66.8811 78.4615L62.9996 110.801L62.1047 120.494C62.0349 121.25 61.791 121.98 61.3922 122.625C60.9935 123.271 60.4507 123.815 59.8068 124.214C59.1628 124.613 58.4352 124.857 57.6812 124.927C56.9272 124.996 56.1675 124.889 55.4619 124.614Z" fill="#FFB8B8"/>
<path d="M11.4192 124.614C12.0298 124.375 12.5866 124.017 13.0563 123.559C13.526 123.1 13.8992 122.552 14.1536 121.947C14.408 121.341 14.5385 120.691 14.5374 120.033C14.5362 119.376 14.4034 118.726 14.1469 118.121L10.1516 108.705L10.7488 78.7609L12.8388 68.5798L2.09005 64.3876L1.90735e-05 78.4615L3.8815 110.801L4.77641 120.494C4.84621 121.25 5.09009 121.98 5.48884 122.625C5.8876 123.271 6.43032 123.815 7.07429 124.214C7.71825 124.613 8.44588 124.857 9.19984 124.927C9.9538 124.996 10.7135 124.889 11.4192 124.614Z" fill="#FFB8B8"/>
<path d="M65.6868 65.286C61.4255 66.3781 57.3848 68.2016 53.7437 70.676L51.0565 62.591L57.9238 39.5339C59.7765 40.1533 61.4028 41.3132 62.5942 42.8652C63.7856 44.4171 64.488 46.2905 64.6113 48.2452C64.4525 53.9464 64.8125 59.6503 65.6868 65.286Z" fill="#F12B2B"/>
<path d="M1.19431 65.286C5.4556 66.3781 9.49626 68.2017 13.1374 70.676L15.8245 62.591L9.85302 39.2344C6.06298 40.5015 2.52209 44.2465 2.26973 48.2452C2.42856 53.9464 2.0686 59.6503 1.19431 65.286Z" fill="#F12B2B"/>
<path d="M62.8831 137.62C63.0668 137.62 63.2431 137.693 63.373 137.823C63.5029 137.954 63.5759 138.13 63.5759 138.315V139.705C63.5759 139.889 63.5029 140.066 63.373 140.196C63.2431 140.326 63.0668 140.399 62.8831 140.399H8.14772C8.05673 140.399 7.96664 140.381 7.88258 140.346C7.79851 140.312 7.72213 140.26 7.6578 140.196C7.59346 140.131 7.54243 140.055 7.50761 139.97C7.47279 139.886 7.45487 139.796 7.45487 139.705V138.315C7.45487 138.224 7.47279 138.133 7.50761 138.049C7.54243 137.965 7.59346 137.888 7.6578 137.823C7.72213 137.759 7.79851 137.708 7.88258 137.673C7.96664 137.638 8.05673 137.62 8.14772 137.62H62.8831Z" fill="#E6E6E6"/>
<path d="M62.8831 144.221C63.0668 144.221 63.2431 144.294 63.373 144.425C63.5029 144.555 63.5759 144.732 63.5759 144.916V146.306C63.5759 146.49 63.5029 146.667 63.373 146.797C63.2431 146.927 63.0668 147.001 62.8831 147.001H8.14772C8.05673 147.001 7.96664 146.983 7.88258 146.948C7.79851 146.913 7.72213 146.862 7.6578 146.797C7.59346 146.733 7.54243 146.656 7.50761 146.572C7.47279 146.487 7.45487 146.397 7.45487 146.306V144.916C7.45487 144.825 7.47279 144.734 7.50761 144.65C7.54243 144.566 7.59346 144.489 7.6578 144.425C7.72213 144.36 7.79851 144.309 7.88258 144.274C7.96664 144.239 8.05673 144.221 8.14772 144.221H62.8831Z" fill="#E6E6E6"/>
<path d="M62.8831 150.822C63.0668 150.822 63.2431 150.896 63.373 151.026C63.5029 151.156 63.5759 151.333 63.5759 151.517V152.907C63.5759 153.091 63.5029 153.268 63.373 153.398C63.2431 153.529 63.0668 153.602 62.8831 153.602H8.14772C7.96396 153.602 7.78773 153.529 7.6578 153.398C7.52786 153.268 7.45487 153.091 7.45487 152.907V151.517C7.45487 151.333 7.52786 151.156 7.6578 151.026C7.78773 150.896 7.96396 150.822 8.14772 150.822H62.8831" fill="#F12B2B"/>
<path d="M62.8831 157.568C63.0668 157.568 63.2431 157.641 63.373 157.772C63.5029 157.902 63.5759 158.079 63.5759 158.263V159.653C63.5759 159.837 63.5029 160.014 63.373 160.144C63.2431 160.274 63.0668 160.348 62.8831 160.348H8.14772C8.05673 160.348 7.96664 160.33 7.88258 160.295C7.79851 160.26 7.72213 160.209 7.6578 160.144C7.59346 160.079 7.54243 160.003 7.50761 159.919C7.47279 159.834 7.45487 159.744 7.45487 159.653V158.263C7.45487 158.172 7.47279 158.081 7.50761 157.997C7.54243 157.913 7.59346 157.836 7.6578 157.772C7.72213 157.707 7.79851 157.656 7.88258 157.621C7.96664 157.586 8.05673 157.568 8.14772 157.568H62.8831Z" fill="#E6E6E6"/>
<path d="M62.8831 164.169C63.0668 164.169 63.2431 164.242 63.373 164.373C63.5029 164.503 63.5759 164.68 63.5759 164.864V166.254C63.5759 166.438 63.5029 166.615 63.373 166.745C63.2431 166.876 63.0668 166.949 62.8831 166.949H8.14772C8.05673 166.949 7.96664 166.931 7.88258 166.896C7.79851 166.861 7.72213 166.81 7.6578 166.745C7.59346 166.681 7.54243 166.604 7.50761 166.52C7.47279 166.435 7.45487 166.345 7.45487 166.254V164.864C7.45487 164.773 7.47279 164.683 7.50761 164.598C7.54243 164.514 7.59346 164.437 7.6578 164.373C7.72213 164.308 7.79851 164.257 7.88258 164.222C7.96664 164.187 8.05673 164.169 8.14772 164.169H62.8831Z" fill="#E6E6E6"/>
<path d="M62.8831 170.771C63.0668 170.771 63.2431 170.844 63.373 170.974C63.5029 171.104 63.5759 171.281 63.5759 171.465V172.855C63.5759 173.039 63.5029 173.216 63.373 173.346C63.2431 173.477 63.0668 173.55 62.8831 173.55H8.14772C7.96396 173.55 7.78773 173.477 7.6578 173.346C7.52786 173.216 7.45487 173.039 7.45487 172.855V171.465C7.45487 171.281 7.52786 171.104 7.6578 170.974C7.78773 170.844 7.96396 170.771 8.14772 170.771H62.8831Z" fill="#E6E6E6"/>
<path d="M199.475 70.987H131.983C131.557 70.9876 131.148 71.1577 130.846 71.4602C130.545 71.7626 130.375 72.1726 130.375 72.6003V191.088C130.376 191.516 130.546 191.925 130.847 192.228C131.149 192.53 131.557 192.7 131.983 192.701H199.475C199.901 192.7 200.31 192.53 200.611 192.228C200.913 191.925 201.082 191.516 201.084 191.088V72.6003C201.083 72.1726 200.913 71.7626 200.612 71.4602C200.31 71.1577 199.901 70.9876 199.475 70.987Z" fill="#E6E6E6"/>
<path d="M199.045 73.9555C199.012 73.8111 198.955 73.6733 198.876 73.5482C198.765 73.3813 198.615 73.2443 198.439 73.1493C198.263 73.0544 198.066 73.0043 197.866 73.0037H133.592C133.272 73.0039 132.965 73.1315 132.739 73.3584C132.513 73.5852 132.386 73.8928 132.385 74.2137V189.475C132.386 189.795 132.514 190.103 132.74 190.329C132.966 190.556 133.272 190.684 133.592 190.685H197.866C198.186 190.684 198.492 190.556 198.718 190.329C198.944 190.103 199.072 189.795 199.073 189.475V74.2137C199.074 74.1268 199.064 74.0402 199.045 73.9555Z" fill="white"/>
<path d="M193.097 135.603C193.281 135.603 193.457 135.676 193.587 135.807C193.717 135.937 193.79 136.114 193.79 136.298V137.688C193.79 137.872 193.717 138.049 193.587 138.179C193.457 138.31 193.281 138.383 193.097 138.383H138.361C138.27 138.383 138.18 138.365 138.096 138.33C138.012 138.295 137.936 138.244 137.872 138.179C137.807 138.115 137.756 138.038 137.721 137.954C137.687 137.869 137.669 137.779 137.669 137.688V136.298C137.669 136.207 137.687 136.117 137.721 136.032C137.756 135.948 137.807 135.871 137.872 135.807C137.936 135.742 138.012 135.691 138.096 135.656C138.18 135.621 138.27 135.603 138.361 135.603H193.097Z" fill="#E6E6E6"/>
<path d="M193.097 142.204C193.281 142.204 193.457 142.278 193.587 142.408C193.717 142.538 193.79 142.715 193.79 142.899V144.289C193.79 144.473 193.717 144.65 193.587 144.78C193.457 144.911 193.281 144.984 193.097 144.984H138.361C138.27 144.984 138.18 144.966 138.096 144.931C138.012 144.896 137.936 144.845 137.872 144.78C137.807 144.716 137.756 144.639 137.721 144.555C137.687 144.471 137.669 144.38 137.669 144.289V142.899C137.669 142.808 137.687 142.718 137.721 142.633C137.756 142.549 137.807 142.473 137.872 142.408C137.936 142.343 138.012 142.292 138.096 142.257C138.18 142.222 138.27 142.204 138.361 142.204H193.097Z" fill="#E6E6E6"/>
<path d="M193.097 148.806C193.281 148.806 193.457 148.879 193.587 149.009C193.717 149.14 193.79 149.316 193.79 149.501V150.89C193.79 151.075 193.717 151.251 193.587 151.382C193.457 151.512 193.281 151.585 193.097 151.585H138.361C138.178 151.585 138.001 151.512 137.872 151.382C137.742 151.251 137.669 151.075 137.669 150.89V149.501C137.669 149.316 137.742 149.14 137.872 149.009C138.001 148.879 138.178 148.806 138.361 148.806H193.097Z" fill="#F12B2B"/>
<path d="M193.097 155.551C193.281 155.551 193.457 155.625 193.587 155.755C193.717 155.885 193.79 156.062 193.79 156.246V157.636C193.79 157.82 193.717 157.997 193.587 158.127C193.457 158.258 193.281 158.331 193.097 158.331H138.361C138.27 158.331 138.18 158.313 138.096 158.278C138.012 158.243 137.936 158.192 137.872 158.127C137.807 158.063 137.756 157.986 137.721 157.902C137.687 157.818 137.669 157.727 137.669 157.636V156.246C137.669 156.155 137.687 156.065 137.721 155.98C137.756 155.896 137.807 155.819 137.872 155.755C137.936 155.69 138.012 155.639 138.096 155.604C138.18 155.569 138.27 155.551 138.361 155.551H193.097Z" fill="#E6E6E6"/>
<path d="M193.097 162.153C193.281 162.153 193.457 162.226 193.587 162.356C193.717 162.486 193.79 162.663 193.79 162.847V164.237C193.79 164.421 193.717 164.598 193.587 164.729C193.457 164.859 193.281 164.932 193.097 164.932H138.361C138.27 164.932 138.18 164.914 138.096 164.879C138.012 164.844 137.936 164.793 137.872 164.729C137.807 164.664 137.756 164.587 137.721 164.503C137.687 164.419 137.669 164.328 137.669 164.237V162.847C137.669 162.756 137.687 162.666 137.721 162.582C137.756 162.497 137.807 162.421 137.872 162.356C137.936 162.292 138.012 162.24 138.096 162.205C138.18 162.171 138.27 162.153 138.361 162.153H193.097Z" fill="#E6E6E6"/>
<path d="M193.097 168.754C193.281 168.754 193.457 168.827 193.587 168.957C193.717 169.088 193.79 169.264 193.79 169.449V170.838C193.79 171.023 193.717 171.199 193.587 171.33C193.457 171.46 193.281 171.533 193.097 171.533H138.361C138.178 171.533 138.001 171.46 137.872 171.33C137.742 171.199 137.669 171.023 137.669 170.838V169.449C137.669 169.264 137.742 169.088 137.872 168.957C138.001 168.827 138.178 168.754 138.361 168.754H193.097Z" fill="#E6E6E6"/>
<path d="M138.758 84.076C138.544 84.0763 138.34 84.1613 138.189 84.3126C138.038 84.4638 137.954 84.6688 137.953 84.8827V122.359C137.954 122.573 138.038 122.778 138.189 122.929C138.34 123.08 138.544 123.165 138.758 123.166H192.701C192.914 123.165 193.118 123.08 193.269 122.929C193.42 122.778 193.505 122.573 193.505 122.359V84.8827C193.505 84.6688 193.42 84.4638 193.269 84.3126C193.118 84.1613 192.914 84.0763 192.701 84.076H138.758Z" fill="#F12B2B"/>
<path d="M222.532 54.9715C223.997 55.5962 225.455 56.2888 226.863 57.0303L227.237 56.3162C225.81 55.5645 224.332 54.8624 222.847 54.229L222.532 54.9715Z" fill="#CCCCCC"/>
<path d="M239.187 64.6271L238.65 65.2285C239.837 66.2924 240.993 67.4191 242.086 68.5769L242.67 68.0224C241.561 66.8484 240.389 65.7059 239.187 64.6271Z" fill="#CCCCCC"/>
<path d="M231.012 59.4369C232.356 60.292 233.681 61.2133 234.95 62.1754L235.435 61.5318C234.149 60.5567 232.805 59.6226 231.443 58.7557L231.012 59.4369Z" fill="#CCCCCC"/>
<path d="M213.446 51.9461C214.994 52.325 216.543 52.7719 218.05 53.2739L218.304 52.5082C216.776 51.9995 215.205 51.5465 213.637 51.1623L213.446 51.9461Z" fill="#CCCCCC"/>
<path d="M257.58 98.1134L256.785 98.2412C257.037 99.8128 257.223 101.418 257.34 103.011L258.142 102.952C258.024 101.336 257.835 99.7078 257.58 98.1134Z" fill="#CCCCCC"/>
<path d="M254.455 88.9361C254.975 90.4425 255.434 91.9908 255.822 93.538L256.602 93.3415C256.209 91.7718 255.742 90.2008 255.215 88.6722L254.455 88.9361Z" fill="#CCCCCC"/>
<path d="M250.559 80.1737C251.33 81.5707 252.049 83.0167 252.696 84.4709L253.43 84.1424C252.774 82.6671 252.045 81.2005 251.263 79.7833L250.559 80.1737Z" fill="#CCCCCC"/>
<path d="M245.233 72.2002C246.227 73.4463 247.179 74.7498 248.065 76.0743L248.733 75.6253C247.835 74.2819 246.869 72.96 245.861 71.6965L245.233 72.2002Z" fill="#CCCCCC"/>
<path d="M206.216 46.3134C204.391 47.7677 201.494 49.0869 199.173 49.8307C201.417 50.7843 204.182 52.3626 205.867 53.9775L204.788 50.4964C206.115 50.6198 207.444 50.7855 208.75 50.9955L208.877 50.199C207.54 49.984 206.179 49.8149 204.821 49.6894L206.216 46.3134Z" fill="#CCCCCC"/>
<path d="M78.157 84.1426L78.8914 84.4711C79.538 83.0174 80.2568 81.5715 81.0277 80.1738L80.3239 79.7834C79.5418 81.2012 78.8128 82.6679 78.157 84.1426Z" fill="#CCCCCC"/>
<path d="M74.9854 93.3413L75.7653 93.5378C76.1522 91.9928 76.6121 90.4445 77.1325 88.9357L76.3721 88.6722C75.8445 90.2028 75.3777 91.7738 74.9854 93.3413Z" fill="#CCCCCC"/>
<path d="M73.4452 102.952L74.2476 103.011C74.3635 101.417 74.5498 99.8128 74.8016 98.2412L74.0074 98.1132C73.7521 99.7076 73.563 101.336 73.4452 102.952Z" fill="#CCCCCC"/>
<path d="M82.8541 75.6251L83.5222 76.0741C84.4068 74.7507 85.3596 73.4473 86.3545 72.2001L85.7265 71.6963C84.7175 72.9608 83.7512 74.2827 82.8541 75.6251Z" fill="#CCCCCC"/>
<path d="M104.35 56.3162L104.724 57.0303C106.134 56.2882 107.591 55.5956 109.055 54.9715L108.74 54.229C107.256 54.8618 105.779 55.5639 104.35 56.3162Z" fill="#CCCCCC"/>
<path d="M113.284 52.5081L113.537 53.2739C115.044 52.7719 116.593 52.325 118.141 51.9461L117.95 51.1622C116.382 51.5465 114.811 51.9994 113.284 52.5081Z" fill="#CCCCCC"/>
<path d="M88.9167 68.0222L89.5007 68.5768C90.5935 67.4197 91.7495 66.293 92.9366 65.2283L92.4005 64.6269C91.1968 65.7065 90.0246 66.8488 88.9167 68.0222Z" fill="#CCCCCC"/>
<path d="M96.1518 61.5316L96.6368 62.1752C97.9061 61.2129 99.2311 60.2916 100.575 59.4369L100.144 58.7557C98.7818 59.6222 97.4386 60.5561 96.1518 61.5316Z" fill="#CCCCCC"/>
<path d="M132.414 49.8307C130.093 49.086 127.196 47.7669 125.371 46.3126L126.766 49.6894C125.408 49.8149 124.047 49.984 122.71 50.199L122.837 50.9955C124.143 50.7855 125.472 50.6199 126.799 50.4964L125.72 53.9767C127.405 52.3618 130.17 50.7835 132.414 49.8307Z" fill="#CCCCCC"/>
<path d="M165.729 62.3341C163.263 62.3341 160.853 61.6008 158.803 60.2269C156.752 58.853 155.155 56.9003 154.211 54.6156C153.267 52.3309 153.02 49.8169 153.501 47.3914C153.983 44.966 155.17 42.7381 156.913 40.9895C158.657 39.2409 160.878 38.05 163.297 37.5676C165.715 37.0851 168.222 37.3328 170.5 38.2791C172.778 39.2255 174.725 40.828 176.095 42.8842C177.465 44.9404 178.196 47.3578 178.196 49.8307C178.193 53.1457 176.878 56.3238 174.541 58.6678C172.203 61.0118 169.034 62.3303 165.729 62.3341ZM165.729 38.134C163.422 38.134 161.168 38.82 159.25 40.1052C157.332 41.3905 155.837 43.2173 154.954 45.3546C154.071 47.4919 153.84 49.8437 154.29 52.1126C154.74 54.3816 155.851 56.4657 157.482 58.1015C159.113 59.7374 161.191 60.8514 163.454 61.3027C165.716 61.754 168.061 61.5224 170.192 60.6371C172.323 59.7518 174.145 58.2526 175.426 56.3291C176.708 54.4055 177.392 52.1441 177.392 49.8307C177.388 46.7296 176.159 43.7566 173.972 41.5638C171.786 39.371 168.821 38.1375 165.729 38.134V38.134Z" fill="#F12B2B"/>
<path d="M166.936 43.7807H164.523V55.8808H166.936V43.7807Z" fill="#F12B2B"/>
<path d="M171.762 51.0407V48.6207H159.697V51.0407H171.762Z" fill="#F12B2B"/>
</g>
<defs>
<clipPath id="clip0">
<rect width="334" height="218" fill="white"/>
</clipPath>
</defs>
</svg>
